<svg width="132" height="48" viewBox="0 0 132 48" fill="none" xmlns="http://www.w3.org/2000/svg">
<g clip-path="url(#clip0_92_613)">
<path fill-rule="evenodd" clip-rule="evenodd" d="M9.63504 29.5377C-2.41957 28.1512 -4.62873 12.2139 13.0215 0L14.8462 5.76421C14.5877 6.37488 14.3345 6.98766 14.0864 7.60254C14.3521 7.15428 14.6713 6.73992 15.0371 6.3687C17.1233 4.18139 22.7152 4.17516 23.6054 7.04604C24.2228 9.04014 22.0579 11.4748 18.7713 12.49C18.223 12.6602 17.6609 12.7832 17.0915 12.8576L18.0628 15.9248C24.8183 13.8995 38.4697 13.5992 47.7714 17.9924C37.2861 14.0777 6.11124 12.7747 9.63504 29.5377ZM13.7269 10.0098C13.7686 10.1447 13.7964 10.2836 13.8099 10.4242C13.6892 10.1222 13.4975 9.85362 13.251 9.64116C13.0045 9.4287 12.7104 9.27858 12.3935 9.2034C12.3364 9.72648 12.4428 10.2544 12.6983 10.7145C12.9539 11.1747 13.3459 11.5446 13.8205 11.7733C14.9816 12.1273 16.5047 12.1061 18.0572 11.6263C19.6702 11.1277 21.0292 9.91446 20.7926 8.11164C20.3794 6.77874 18.2613 6.249 16.0609 6.92766C15.8033 7.0071 15.5507 7.10178 15.3043 7.21116L16.5659 11.1956C15.7978 11.3227 15.0142 11.3258 14.245 11.205C14.3832 10.7702 14.3854 10.3037 14.2513 9.86772C13.8623 8.61204 12.4409 7.9359 11.0795 8.35656C9.71808 8.77716 8.9265 10.1357 9.31602 11.3907C9.70554 12.6457 11.1263 13.3225 12.4878 12.9019C12.8096 12.8031 13.1107 12.6464 13.376 12.4395C12.539 12.0625 11.936 11.4798 11.7013 10.7233C11.5452 10.2198 11.567 9.687 11.7406 9.15606C11.5988 9.16914 11.4589 9.19692 11.323 9.23892C10.8562 9.38298 10.457 9.69018 10.1987 10.1041C9.94044 10.5181 9.84024 11.0111 9.91656 11.4929C9.87462 11.4046 9.83892 11.3134 9.80982 11.2199C9.64908 10.7014 9.70122 10.1404 9.95484 9.66024C10.2085 9.18012 10.6428 8.82018 11.1622 8.65974C11.6816 8.49924 12.2437 8.55132 12.7246 8.80452C13.2056 9.05772 13.5661 9.49122 13.7269 10.0098Z" fill="url(#paint0_linear_92_613)"/>
<path fill-rule="evenodd" clip-rule="evenodd" d="M9.63504 29.5377C-2.41957 28.1512 -4.62873 12.2139 13.0215 0C9.28032 3.86563 6.92082 8.85516 6.30858 14.1953C5.69632 19.5355 6.86556 24.9282 9.63504 29.5377Z" fill="url(#paint1_linear_92_613)"/>
<path fill-rule="evenodd" clip-rule="evenodd" d="M21.0236 27.9761V27.9711C11.1241 31.9119 4.1162 30.8862 0 24.894C1.01001 40.5585 10.0862 48.2584 27.2285 47.9938L21.0236 27.9761Z" fill="url(#paint2_linear_92_613)"/>
<path fill-rule="evenodd" clip-rule="evenodd" d="M0 24.894C1.01001 40.5585 10.0862 48.2584 27.2285 47.9938C26.1943 44.6574 25.1602 41.321 24.1261 37.9846C21.6996 39.0514 19.0605 39.549 16.4114 39.4392C13.7624 39.3294 11.1737 38.6151 8.84418 37.3511C6.51468 36.0871 4.50631 34.3071 2.97317 32.1477C1.44005 29.9883 0.422964 27.5068 0 24.894Z" fill="url(#paint3_linear_92_613)"/>
<path d="M32.4 16.8H25.608V33.6H32.4C37.488 33.6 41.088 30.096 41.088 25.2C41.088 20.28 37.488 16.8 32.4 16.8ZM32.184 29.376H30.264V21.048H32.184C34.68 21.048 36.336 22.704 36.336 25.2C36.336 27.672 34.68 29.376 32.184 29.376Z" fill="#6FB6F6"/>
<path d="M51.8668 34.032C57.2668 34.032 61.107 30.36 61.107 25.224C61.107 20.064 57.2668 16.392 51.8668 16.392C46.4668 16.392 42.6268 20.088 42.6268 25.224C42.6268 30.336 46.4668 34.032 51.8668 34.032ZM51.8668 29.736C49.3228 29.736 47.4268 27.816 47.4268 25.224C47.4268 22.608 49.3228 20.688 51.8668 20.688C54.4348 20.688 56.2828 22.584 56.2828 25.224C56.2828 27.84 54.4348 29.736 51.8668 29.736ZM70.6116 16.8H63.4596V33.6H68.0916V28.968H70.6116C74.1876 28.968 76.8516 26.4 76.8516 22.872C76.8516 19.368 74.1876 16.8 70.6116 16.8ZM70.0596 24.936H68.0916V20.856H70.0596C71.2836 20.856 72.0756 21.696 72.0756 22.896C72.0756 24.096 71.2836 24.936 70.0596 24.936ZM91.5282 16.8H77.7522V20.976H82.3122V33.6H86.9682V20.976H91.5282V16.8ZM101.554 34.032C106.954 34.032 110.794 30.36 110.794 25.224C110.794 20.064 106.954 16.392 101.554 16.392C96.1542 16.392 92.3142 20.088 92.3142 25.224C92.3142 30.336 96.1542 34.032 101.554 34.032ZM101.554 29.736C99.0102 29.736 97.1142 27.816 97.1142 25.224C97.1142 22.608 99.0102 20.688 101.554 20.688C104.122 20.688 105.97 22.584 105.97 25.224C105.97 27.84 104.122 29.736 101.554 29.736ZM123.659 16.8V25.632L117.203 16.8H113.147V33.6H117.635V24.504L124.307 33.6H128.147V16.8H123.659Z" fill="#1C2D3C"/>
</g>
<defs>
<linearGradient id="paint0_linear_92_613" x1="24.1959" y1="16.2576" x2="15.8138" y2="32.0722" gradientUnits="userSpaceOnUse">
<stop stop-color="#6FB6F6"/>
<stop offset="1" stop-color="#0082F0"/>
</linearGradient>
<linearGradient id="paint1_linear_92_613" x1="19.5341" y1="-5.05568" x2="7.06812" y2="18.4639" gradientUnits="userSpaceOnUse">
<stop stop-color="#6FB6F6"/>
<stop offset="1" stop-color="#0082F0"/>
</linearGradient>
<linearGradient id="paint2_linear_92_613" x1="0.111114" y1="26.192" x2="23.1851" y2="41.0519" gradientUnits="userSpaceOnUse">
<stop stop-color="#0082F0"/>
<stop offset="1" stop-color="#6FB6F6"/>
</linearGradient>
<linearGradient id="paint3_linear_92_613" x1="3.65177" y1="32.7862" x2="30.6197" y2="49.5211" gradientUnits="userSpaceOnUse">
<stop stop-color="#0082F0"/>
<stop offset="1" stop-color="#6FB6F6"/>
</linearGradient>
<clipPath id="clip0_92_613">
<rect width="131.4" height="48" fill="white"/>
</clipPath>
</defs>
</svg>
