<svg width="176" height="64" viewBox="0 0 176 64" fill="none" xmlns="http://www.w3.org/2000/svg">
<g clip-path="url(#clip0_92_2845)">
<path fill-rule="evenodd" clip-rule="evenodd" d="M13.1929 39.3836C-2.8799 37.5349 -5.82545 16.2852 17.7082 0L20.1411 7.68562C19.7964 8.49984 19.4588 9.31688 19.1281 10.1367C19.4823 9.53904 19.9079 8.98656 20.3957 8.4916C23.1773 5.57518 30.6331 5.56688 31.82 9.39472C32.6432 12.0535 29.7567 15.2998 25.3746 16.6533C24.6435 16.8802 23.8941 17.0442 23.1349 17.1435L24.4299 21.233C33.4372 18.5327 51.6391 18.1322 64.0414 23.9899C50.061 18.7703 8.49451 17.033 13.1929 39.3836ZM18.6487 13.3464C18.7043 13.5263 18.7414 13.7114 18.7594 13.8989C18.5985 13.4962 18.3429 13.1382 18.0142 12.8549C17.6855 12.5716 17.2934 12.3714 16.8709 12.2712C16.7947 12.9686 16.9366 13.6725 17.2773 14.286C17.618 14.8996 18.1407 15.3928 18.7736 15.6978C20.3216 16.1697 22.3525 16.1414 24.4224 15.5017C26.5731 14.837 28.3851 13.2193 28.0696 10.8155C27.5187 9.03832 24.6946 8.332 21.7607 9.23688C21.4172 9.3428 21.0804 9.46904 20.7519 9.61488L22.434 14.9275C21.4099 15.097 20.3651 15.1011 19.3395 14.94C19.5238 14.3603 19.5267 13.7383 19.3479 13.157C18.8293 11.4827 16.9341 10.5812 15.1188 11.1421C13.3036 11.7029 12.2482 13.5142 12.7675 15.1876C13.2869 16.861 15.1813 17.7634 16.9966 17.2025C17.4257 17.0708 17.8271 16.8618 18.1809 16.586C17.0648 16.0833 16.2608 15.3064 15.9479 14.2978C15.7398 13.6264 15.7689 12.916 16.0003 12.2081C15.8113 12.2255 15.6247 12.2626 15.4435 12.3186C14.8211 12.5106 14.2889 12.9202 13.9445 13.4722C13.6001 14.0242 13.4665 14.6815 13.5683 15.3238C13.5123 15.2061 13.4647 15.0845 13.4259 14.9599C13.2116 14.2686 13.2811 13.5205 13.6193 12.8803C13.9575 12.2402 14.5366 11.7602 15.2291 11.5463C15.9217 11.3323 16.6711 11.4018 17.3123 11.7394C17.9537 12.077 18.4343 12.655 18.6487 13.3464Z" fill="#FAFAFB"/>
<path fill-rule="evenodd" clip-rule="evenodd" d="M13.1929 39.3836C-2.8799 37.5349 -5.82545 16.2852 17.7082 0C12.7199 5.15418 9.57395 11.8069 8.75763 18.9271C7.94129 26.0474 9.50027 33.2376 13.1929 39.3836Z" fill="#FAFAFB"/>
<path fill-rule="evenodd" clip-rule="evenodd" d="M28.3776 37.3014V37.2948C15.1783 42.5492 5.83446 41.1816 0.346191 33.1919C1.69287 54.0779 13.7944 64.3445 36.6508 63.9917L28.3776 37.3014Z" fill="#FAFAFB"/>
<path fill-rule="evenodd" clip-rule="evenodd" d="M0.346191 33.1919C1.69287 54.0779 13.7944 64.3445 36.6508 63.9917C35.2719 59.5432 33.8932 55.0946 32.5143 50.6461C29.279 52.0685 25.7602 52.732 22.2281 52.5856C18.696 52.4391 15.2444 51.4867 12.1384 49.8014C9.03243 48.1161 6.3546 45.7428 4.31042 42.8635C2.26626 39.9843 0.910143 36.6757 0.346191 33.1919Z" fill="#FAFAFB"/>
<path d="M43.5462 22.3999H34.4902V44.7999H43.5462C50.3302 44.7999 55.1302 40.1279 55.1302 33.5999C55.1302 27.0399 50.3302 22.3999 43.5462 22.3999ZM43.2582 39.1679H40.6982V28.0639H43.2582C46.5862 28.0639 48.7942 30.2719 48.7942 33.5999C48.7942 36.8959 46.5862 39.1679 43.2582 39.1679Z" fill="#FAFAFB"/>
<path d="M69.502 45.376C76.702 45.376 81.8222 40.48 81.8222 33.632C81.8222 26.752 76.702 21.856 69.502 21.856C62.302 21.856 57.182 26.784 57.182 33.632C57.182 40.448 62.302 45.376 69.502 45.376ZM69.502 39.648C66.11 39.648 63.582 37.088 63.582 33.632C63.582 30.144 66.11 27.584 69.502 27.584C72.926 27.584 75.39 30.112 75.39 33.632C75.39 37.12 72.926 39.648 69.502 39.648ZM94.495 22.4H84.959V44.8H91.135V38.624H94.495C99.263 38.624 102.815 35.2 102.815 30.496C102.815 25.824 99.263 22.4 94.495 22.4ZM93.759 33.248H91.135V27.808H93.759C95.391 27.808 96.447 28.928 96.447 30.528C96.447 32.128 95.391 33.248 93.759 33.248ZM122.384 22.4H104.016V27.968H110.096V44.8H116.304V27.968H122.384V22.4ZM135.752 45.376C142.952 45.376 148.072 40.48 148.072 33.632C148.072 26.752 142.952 21.856 135.752 21.856C128.552 21.856 123.432 26.784 123.432 33.632C123.432 40.448 128.552 45.376 135.752 45.376ZM135.752 39.648C132.36 39.648 129.832 37.088 129.832 33.632C129.832 30.144 132.36 27.584 135.752 27.584C139.176 27.584 141.64 30.112 141.64 33.632C141.64 37.12 139.176 39.648 135.752 39.648ZM165.225 22.4V34.176L156.617 22.4H151.209V44.8H157.193V32.672L166.089 44.8H171.209V22.4H165.225Z" fill="#FAFAFB"/>
</g>
<defs>
<clipPath id="clip0_92_2845">
<rect width="175.2" height="64" fill="white" transform="translate(0.346191)"/>
</clipPath>
</defs>
</svg>
