<svg width="16" height="16" viewBox="0 0 16 16" fill="none" xmlns="http://www.w3.org/2000/svg">
<path fill-rule="evenodd" clip-rule="evenodd" d="M8.14054 0.83592C8.04688 0.832485 7.95313 0.832485 7.85947 0.83592C7.24122 0.858601 6.68451 1.06883 6.0741 1.41879C5.47926 1.75983 4.79443 2.2574 3.92551 2.88871L3.87828 2.92303C3.00935 3.55434 2.32451 4.05189 1.81634 4.51224C1.29488 4.98463 0.922902 5.44913 0.710281 6.03011C0.678072 6.11812 0.649102 6.20728 0.623429 6.29742C0.453948 6.89242 0.481857 7.48685 0.626064 8.17553C0.766596 8.84665 1.02818 9.65171 1.36009 10.6732L1.37813 10.7287C1.71002 11.7502 1.9716 12.5553 2.25239 13.1808C2.54051 13.8227 2.86733 14.32 3.35418 14.7018C3.42793 14.7596 3.50377 14.8147 3.58156 14.867C4.07136 15.1961 4.61622 15.3544 5.27321 15.4339C5.9721 15.5186 6.84591 15.5186 7.96654 15.5186H8.03347C9.1541 15.5186 10.0279 15.5186 10.7268 15.4339C11.3838 15.3544 11.9286 15.1961 12.4184 14.867C12.4962 14.8147 12.5721 14.7596 12.6458 14.7018C13.1327 14.32 13.4595 13.8227 13.7476 13.1808C14.0284 12.5553 14.29 11.7502 14.6219 10.7287L14.6399 10.6732C14.9718 9.65174 15.2334 8.84662 15.3739 8.17553C15.5182 7.48685 15.5461 6.89242 15.3766 6.29742C15.3509 6.20729 15.3219 6.11813 15.2897 6.03011C15.0771 5.44913 14.7051 4.98463 14.1837 4.51224C13.6755 4.05189 12.9907 3.55433 12.1217 2.92302L12.0745 2.8887C11.2056 2.25739 10.5208 1.75983 9.92591 1.41879C9.3155 1.06883 8.75879 0.858601 8.14054 0.83592ZM7.89613 1.83525C7.96536 1.83271 8.03465 1.83271 8.10388 1.83525C8.50083 1.84981 8.89619 1.98113 9.42853 2.28633C9.97104 2.59736 10.6126 3.06265 11.5103 3.71489C12.4081 4.36713 13.0488 4.83351 13.5123 5.25336C13.9671 5.66533 14.2141 6.00076 14.3506 6.37379C14.3744 6.43884 14.3959 6.50474 14.4148 6.57136C14.5237 6.95339 14.5209 7.36998 14.3952 7.97057C14.267 8.58265 14.0227 9.3366 13.6798 10.3919C13.3369 11.4473 13.0914 12.2008 12.8353 12.7713C12.584 13.3311 12.3414 13.6698 12.0288 13.9149C11.9743 13.9576 11.9182 13.9983 11.8607 14.037C11.6637 14.1694 11.4426 14.2677 11.1667 14.3394V12.5465C11.1667 10.7975 9.74891 9.37978 8 9.37978C6.2511 9.37978 4.83334 10.7975 4.83334 12.5465V14.3394C4.55736 14.2677 4.33632 14.1694 4.13929 14.037C4.08179 13.9983 4.02574 13.9576 3.97123 13.9149C3.65864 13.6698 3.41597 13.3311 3.1647 12.7713C2.90862 12.2008 2.66307 11.4473 2.32017 10.3919C1.97726 9.3366 1.733 8.58265 1.60484 7.97057C1.47907 7.36998 1.47636 6.95339 1.58517 6.57136C1.60415 6.50474 1.62556 6.43884 1.64937 6.37379C1.78589 6.00076 2.03295 5.66533 2.48771 5.25336C2.95117 4.83351 3.59194 4.36713 4.48967 3.71489C5.3874 3.06265 6.02897 2.59736 6.57148 2.28633C7.10382 1.98113 7.49918 1.84981 7.89613 1.83525ZM8 10.3798C9.19662 10.3798 10.1667 11.3498 10.1667 12.5465V14.4812C9.60441 14.5181 8.90886 14.5186 8 14.5186C7.09115 14.5186 6.3956 14.5181 5.83334 14.4812V12.5465C5.83334 11.3498 6.80339 10.3798 8 10.3798Z" fill="#0082F0"/>
</svg>
