<svg width="15" height="17" viewBox="0 0 15 17" fill="none" xmlns="http://www.w3.org/2000/svg">
<path fill-rule="evenodd" clip-rule="evenodd" d="M6.25 0.9375C4.28249 0.9375 2.6875 2.53249 2.6875 4.5C2.6875 6.46751 4.28249 8.0625 6.25 8.0625C8.21751 8.0625 9.8125 6.46751 9.8125 4.5C9.8125 2.53249 8.21751 0.9375 6.25 0.9375ZM3.8125 4.5C3.8125 3.15381 4.90381 2.0625 6.25 2.0625C7.59619 2.0625 8.6875 3.15381 8.6875 4.5C8.6875 5.84619 7.59619 6.9375 6.25 6.9375C4.90381 6.9375 3.8125 5.84619 3.8125 4.5Z" fill="#FAFAFB"/>
<path d="M4 9.1875C2.03249 9.1875 0.4375 10.7825 0.4375 12.75C0.4375 14.7175 2.03249 16.3125 4 16.3125H8.5C8.81066 16.3125 9.0625 16.0607 9.0625 15.75C9.0625 15.4393 8.81066 15.1875 8.5 15.1875H4C2.65381 15.1875 1.5625 14.0962 1.5625 12.75C1.5625 11.4038 2.65381 10.3125 4 10.3125H8.5C8.81066 10.3125 9.0625 10.0607 9.0625 9.75C9.0625 9.43934 8.81066 9.1875 8.5 9.1875H4Z" fill="#FAFAFB"/>
<path d="M12.0625 10.5C12.0625 10.1893 11.8107 9.9375 11.5 9.9375C11.1893 9.9375 10.9375 10.1893 10.9375 10.5V12.1875H9.25C8.93934 12.1875 8.6875 12.4393 8.6875 12.75C8.6875 13.0607 8.93934 13.3125 9.25 13.3125H10.9375V15C10.9375 15.3107 11.1893 15.5625 11.5 15.5625C11.8107 15.5625 12.0625 15.3107 12.0625 15V13.3125H13.75C14.0607 13.3125 14.3125 13.0607 14.3125 12.75C14.3125 12.4393 14.0607 12.1875 13.75 12.1875H12.0625V10.5Z" fill="#FAFAFB"/>
</svg>
