<svg width="1440" height="653" viewBox="0 0 1440 653" fill="none" xmlns="http://www.w3.org/2000/svg">
<path fill-rule="evenodd" clip-rule="evenodd" d="M459.944 -495.979C772.425 -494.22 1544.26 -420.79 1641.62 -202.138C1739.74 18.1911 1597.69 305.078 1251.56 490.096C979.673 621.608 251.586 645.455 -20.0784 504.669C-302.87 358.117 -396.016 81.0168 -280.838 -159.082C-173.967 -381.865 139.087 -497.786 459.944 -495.979Z" fill="url(#paint0_linear_419_685)"/>
<path opacity="0.5" fill-rule="evenodd" clip-rule="evenodd" d="M1702.5 -281.603C1755.53 -250.442 1682.82 -160.579 1690.12 -99.5004C1694.05 -66.6177 1726.27 -43.9608 1734.72 -11.9402C1743.67 21.9531 1737.73 56.9703 1740.63 91.9033C1744.81 142.224 1772.57 193.357 1755.75 240.966C1739.26 287.627 1695.83 322.46 1651.43 344.318C1606.94 366.223 1552.87 379.142 1505.61 364.109C1457.67 348.861 1428.09 301.583 1395.8 263.008C1371.97 234.55 1371.51 188.636 1341.02 167.479C1299.83 138.904 1221.4 170.347 1198.21 125.911C1176.9 85.0802 1256.74 47.2587 1254.26 1.26772C1251.23 -54.7186 1169.51 -94.8798 1183.32 -149.219C1195.46 -196.943 1272.38 -189.869 1310.71 -220.779C1350.08 -252.527 1360.64 -339.333 1410.77 -332.626C1473.68 -324.209 1472.19 -201.747 1534.71 -190.811C1598.04 -179.735 1647.06 -314.173 1702.5 -281.603Z" fill="url(#paint1_linear_419_685)"/>
<path opacity="0.3" fill-rule="evenodd" clip-rule="evenodd" d="M243.649 416.803C181.516 378.691 102.731 345.473 84.3359 274.942C65.9381 204.4 125.36 140.317 154.063 73.3035C181.688 8.80883 194.163 -64.812 248.744 -108.899C306.596 -155.629 383.203 -179.171 457.178 -171.538C529.571 -164.068 590.345 -117.987 643.407 -68.1776C693.559 -21.1005 731.061 36.6263 749.527 102.887C768.274 170.155 769.76 240.884 748.033 307.25C725.315 376.64 690.12 448.507 625.345 482.201C562.303 514.994 487.439 491.236 417.398 479.236C355.219 468.582 297.425 449.787 243.649 416.803Z" fill="#6FB6F6"/>
<path opacity="0.4" fill-rule="evenodd" clip-rule="evenodd" d="M780.005 33.918C826.884 40.3639 873.973 -43.3423 911.699 -14.7776C955.36 18.2811 904.365 97.9155 929.074 146.789C945.494 179.266 994.897 177.758 1021.56 202.525C1057.2 235.633 1113.34 267.211 1111.03 315.803C1108.78 363.03 1044.86 381.173 1011.47 414.65C985.247 440.947 960.201 466.7 934.144 493.166C903.917 523.867 887.418 580.894 844.466 584.277C798.886 587.866 776.414 517.773 731.518 509.123C685.347 500.227 637.477 555.532 594.64 536.144C555.186 518.287 560.913 457.435 537.221 421.183C512.04 382.652 463.479 359.812 450.535 315.64C437.506 271.18 449.408 222.225 466.271 179.073C482.808 136.755 520.014 107.641 546.3 70.5826C575.584 29.2969 581.13 -45.5103 631.135 -53.3554C688.59 -62.3691 722.39 25.9959 780.005 33.918Z" fill="url(#paint2_linear_419_685)"/>
<circle cx="777.5" cy="-188.5" r="652.5" fill="url(#paint3_radial_419_685)"/>
<path opacity="0.1" fill-rule="evenodd" clip-rule="evenodd" d="M197.884 0.0308522C238.588 1.7434 249.313 62.5299 284.161 83.6327C317.908 104.068 366.237 92.2084 394.889 119.329C425.212 148.031 454.968 193.369 442.037 233.069C427.934 276.372 363.038 276.996 332.525 310.804C310.776 334.903 308.632 369.527 293.137 398.052C262.911 453.693 260.772 551.261 197.884 558.658C139.009 565.583 138.264 454.694 88.7511 422.093C43.806 392.5 -32.8855 427.922 -65.5845 385.183C-96.9926 344.131 -53.0404 284.68 -55.8696 233.069C-58.9189 177.444 -122.967 109.622 -82.8065 71.0125C-36.3127 26.3146 44.7844 92.0039 107.311 76.1921C146.216 66.3536 157.79 -1.65605 197.884 0.0308522Z" fill="#8CC5F8"/>
<defs>
<linearGradient id="paint0_linear_419_685" x1="-329" y1="-496" x2="1788.28" y2="-180.6" gradientUnits="userSpaceOnUse">
<stop stop-color="#0082F0"/>
<stop offset="1" stop-color="#6FB6F6"/>
</linearGradient>
<linearGradient id="paint1_linear_419_685" x1="1546.5" y1="-72" x2="1330.75" y2="250.086" gradientUnits="userSpaceOnUse">
<stop stop-color="#31D3DD"/>
<stop offset="0.0001" stop-color="#9433FF"/>
<stop offset="1" stop-color="#31D3DD"/>
</linearGradient>
<linearGradient id="paint2_linear_419_685" x1="445" y1="-54" x2="1160.26" y2="6.89025" gradientUnits="userSpaceOnUse">
<stop stop-color="#0082F0"/>
<stop offset="1" stop-color="#6FB6F6"/>
</linearGradient>
<radialGradient id="paint3_radial_419_685" cx="0" cy="0" r="1" gradientUnits="userSpaceOnUse" gradientTransform="translate(777.5 -188.5) rotate(90) scale(652.5)">
<stop stop-color="#0082F0"/>
<stop offset="1" stop-color="#6FB6F6" stop-opacity="0.12"/>
</radialGradient>
</defs>
</svg>
