<svg width="17" height="16" viewBox="0 0 17 16" fill="none" xmlns="http://www.w3.org/2000/svg">
<g clip-path="url(#clip0_92_616)">
<path d="M6.62348 3.20154C6.89622 3.15834 7.0823 2.90222 7.0391 2.62948C6.99591 2.35673 6.73979 2.17065 6.46704 2.21385C4.82679 2.47364 3.54036 3.76007 3.28057 5.40032C3.23737 5.67306 3.42345 5.92918 3.6962 5.97238C3.96894 6.01558 4.22506 5.8295 4.26826 5.55676C4.46028 4.34439 5.41112 3.39356 6.62348 3.20154Z" fill="#3B4956"/>
<path fill-rule="evenodd" clip-rule="evenodd" d="M7.7334 0.166656C4.14355 0.166656 1.2334 3.07681 1.2334 6.66666C1.2334 10.2565 4.14355 13.1667 7.7334 13.1667C11.3232 13.1667 14.2334 10.2565 14.2334 6.66666C14.2334 3.07681 11.3232 0.166656 7.7334 0.166656ZM2.2334 6.66666C2.2334 3.62909 4.69583 1.16666 7.7334 1.16666C10.771 1.16666 13.2334 3.62909 13.2334 6.66666C13.2334 9.70422 10.771 12.1667 7.7334 12.1667C4.69583 12.1667 2.2334 9.70422 2.2334 6.66666Z" fill="#3B4956"/>
<path d="M13.4203 11.6465C13.2251 11.4512 12.9085 11.4512 12.7132 11.6465C12.518 11.8418 12.518 12.1583 12.7132 12.3536L15.3798 15.0202C15.5751 15.2155 15.8917 15.2155 16.0869 15.0202C16.2822 14.825 16.2822 14.5084 16.0869 14.3131L13.4203 11.6465Z" fill="#3B4956"/>
</g>
<defs>
<clipPath id="clip0_92_616">
<rect width="16" height="16" fill="white" transform="translate(0.400024)"/>
</clipPath>
</defs>
</svg>
