<svg width="24" height="24" viewBox="0 0 24 24" fill="none" xmlns="http://www.w3.org/2000/svg">
<path d="M21.9679 14.3025L17.5466 12.8284L16.0725 8.40713C15.8171 7.64025 15.102 7.125 14.2939 7.125H13.8075L13.4929 5.5515C13.4576 5.37637 13.3039 5.25 13.125 5.25H10.875C10.6961 5.25 10.5424 5.37637 10.5075 5.5515L10.1925 7.125H6.70612C5.898 7.125 5.18288 7.64025 4.9275 8.40713L3.47963 12.75H2.625C1.59113 12.75 0.75 13.5911 0.75 14.625V19.125C0.75 20.1589 1.59113 21 2.625 21H4.155C4.338 22.2697 5.43037 23.25 6.75 23.25C8.06963 23.25 9.162 22.2697 9.345 21H14.28C14.463 22.2697 15.5554 23.25 16.875 23.25C18.1946 23.25 19.287 22.2697 19.47 21H21.375C22.4089 21 23.25 20.1589 23.25 19.125V16.0811C23.25 15.273 22.7348 14.5579 21.9679 14.3025ZM22.5 16.0811V16.125H22.125C21.5047 16.125 21 15.6203 21 15V14.7701L21.7305 15.0135C22.191 15.1672 22.5 15.5962 22.5 16.0811ZM11.1821 6H12.8175L13.0425 7.125H10.9575L11.1821 6ZM6.75 22.5C5.71613 22.5 4.875 21.6589 4.875 20.625C4.875 19.5911 5.71613 18.75 6.75 18.75C7.78387 18.75 8.625 19.5911 8.625 20.625C8.625 21.6589 7.78387 22.5 6.75 22.5ZM16.875 22.5C15.8411 22.5 15 21.6589 15 20.625C15 19.5911 15.8411 18.75 16.875 18.75C17.9089 18.75 18.75 19.5911 18.75 20.625C18.75 21.6589 17.9089 22.5 16.875 22.5ZM21.375 20.25H19.47C19.287 18.9803 18.1946 18 16.875 18C15.5554 18 14.463 18.9803 14.28 20.25H10.875V13.5H15.4256C15.5434 13.5 15.6548 13.4445 15.7256 13.35C15.7965 13.2559 15.8186 13.1336 15.7856 13.02L14.5826 8.895C14.5361 8.73487 14.3891 8.625 14.2226 8.625H6.77737C6.61087 8.625 6.46388 8.73487 6.41738 8.895L5.21437 13.02C5.18137 13.1336 5.2035 13.2559 5.27437 13.35C5.34487 13.4445 5.45625 13.5 5.57437 13.5H10.125V20.25H9.345C9.162 18.9803 8.06963 18 6.75 18C5.43037 18 4.338 18.9803 4.155 20.25H2.625C2.00475 20.25 1.5 19.7453 1.5 19.125V14.625C1.5 14.0047 2.00475 13.5 2.625 13.5H3.75C3.91162 13.5 4.0545 13.3969 4.1055 13.2435L5.6385 8.64413C5.79225 8.184 6.22125 7.875 6.70612 7.875H10.5H13.5H14.2939C14.7788 7.875 15.2078 8.184 15.3615 8.6445L16.8945 13.2439C16.9316 13.356 17.0194 13.4438 17.1315 13.4809L20.25 14.52V15C20.25 16.0339 21.0911 16.875 22.125 16.875H22.5V19.125C22.5 19.7453 21.9953 20.25 21.375 20.25ZM10.875 9.375H13.9414L14.9257 12.75H10.875V9.375ZM10.125 12.75H6.07425L7.05862 9.375H10.125V12.75Z" fill="#0D1F2F"/>
<path d="M13.125 14.25H11.625V15H13.125V14.25Z" fill="#0D1F2F"/>
<path d="M7.125 14.25H5.625V15H7.125V14.25Z" fill="#0D1F2F"/>
<path d="M19.5 2.25H18.75V3H19.5V2.25Z" fill="#0D1F2F"/>
<path d="M18 2.25H17.25V3H18V2.25Z" fill="#0D1F2F"/>
<path d="M18 3.75H17.25V4.5H18V3.75Z" fill="#0D1F2F"/>
<path d="M18 0.75H17.25V1.5H18V0.75Z" fill="#0D1F2F"/>
<path d="M15.375 2.25H14.625V3H15.375V2.25Z" fill="#0D1F2F"/>
<path d="M13.875 2.25H13.125V3H13.875V2.25Z" fill="#0D1F2F"/>
<path d="M13.875 3.75H13.125V4.5H13.875V3.75Z" fill="#0D1F2F"/>
<path d="M13.875 0.75H13.125V1.5H13.875V0.75Z" fill="#0D1F2F"/>
<path d="M11.25 2.25H10.5V3H11.25V2.25Z" fill="#0D1F2F"/>
<path d="M9.75 2.25H9V3H9.75V2.25Z" fill="#0D1F2F"/>
<path d="M9.75 3.75H9V4.5H9.75V3.75Z" fill="#0D1F2F"/>
<path d="M9.75 0.75H9V1.5H9.75V0.75Z" fill="#0D1F2F"/>
<path d="M7.125 2.25H6.375V3H7.125V2.25Z" fill="#0D1F2F"/>
<path d="M5.625 2.25H4.875V3H5.625V2.25Z" fill="#0D1F2F"/>
<path d="M5.625 3.75H4.875V4.5H5.625V3.75Z" fill="#0D1F2F"/>
<path d="M5.625 0.75H4.875V1.5H5.625V0.75Z" fill="#0D1F2F"/>
</svg>
