<svg width="19" height="22" viewBox="0 0 19 22" fill="none" xmlns="http://www.w3.org/2000/svg">
<path d="M13.396 7.67328C12.7889 7.67315 12.1877 7.79294 11.627 8.02579C11.0663 8.25863 10.5571 8.59994 10.1287 9.03012C10.0384 8.89705 9.94097 8.77348 9.84117 8.64517C9.68526 8.44835 9.58935 8.21078 9.56491 7.96089C9.54047 7.711 9.58853 7.45935 9.70334 7.23606C10.2906 6.13202 10.4269 4.84326 10.0835 3.64081C9.82923 2.75077 9.30317 1.96243 8.5789 1.386C7.85463 0.809563 6.96835 0.473841 6.04394 0.425759C5.44784 0.394885 4.85175 0.486726 4.2926 0.695592C3.73344 0.904459 3.22312 1.2259 2.79324 1.64002C2.34505 2.07025 1.9887 2.58685 1.74569 3.15862C1.50269 3.73039 1.37808 4.34548 1.37938 4.96675C1.37962 5.74885 1.57134 6.51899 1.9378 7.20992C2.05295 7.43423 2.10076 7.68705 2.07546 7.93792C2.05016 8.18878 1.95284 8.42698 1.79522 8.62378C1.07041 9.54919 0.67863 10.6919 0.683144 11.8673C0.683144 14.5382 2.58413 16.8075 5.01265 17.0357C5.10057 17.0357 5.20512 17.0499 5.31681 17.0523V21.2178C5.31681 21.3124 5.35436 21.403 5.42121 21.4699C5.48805 21.5367 5.57871 21.5743 5.67324 21.5743C5.76778 21.5743 5.85844 21.5367 5.92528 21.4699C5.99213 21.403 6.02968 21.3124 6.02968 21.2178V17.0594C6.2673 17.0594 6.47879 17.0452 6.638 17.0333C7.25262 16.9706 7.84773 16.7818 8.38617 16.4789C8.92462 16.1759 9.39484 15.7653 9.7675 15.2725C10.1142 15.7326 10.5521 16.1163 11.0537 16.3996C11.5554 16.683 12.1101 16.8599 12.6831 16.9192V16.9192C12.8115 16.9192 12.9802 16.9382 13.1584 16.9406V21.2178C13.1584 21.3124 13.1959 21.403 13.2628 21.4699C13.3296 21.5367 13.4203 21.5743 13.5148 21.5743C13.6094 21.5743 13.7 21.5367 13.7669 21.4699C13.8337 21.403 13.8713 21.3124 13.8713 21.2178V16.9406L14.1422 16.924C16.3212 16.7363 18.0297 14.7212 18.0297 12.3331C18.0328 11.1008 17.5465 9.91768 16.6776 9.04386C15.8087 8.17005 14.6283 7.67706 13.396 7.67328ZM6.57621 16.318C6.43602 16.318 6.23879 16.337 6.02968 16.3418V5.05942C6.02968 4.96489 5.99213 4.87423 5.92528 4.80738C5.85844 4.74054 5.76778 4.70299 5.67324 4.70299C5.57871 4.70299 5.48805 4.74054 5.42121 4.80738C5.35436 4.87423 5.31681 4.96489 5.31681 5.05942V12.9913L3.43007 11.1046C3.36251 11.0416 3.27314 11.0073 3.1808 11.009C3.08846 11.0106 3.00035 11.048 2.93505 11.1133C2.86974 11.1786 2.83233 11.2667 2.8307 11.3591C2.82908 11.4514 2.86335 11.5408 2.92631 11.6083L5.30255 13.9846H5.31681V16.3466L5.07918 16.3323C3.01423 16.1374 1.39602 14.1794 1.39602 11.8745C1.3876 10.8579 1.7225 9.86829 2.34651 9.06576C2.58853 8.76037 2.73704 8.39149 2.77414 8.00359C2.81125 7.6157 2.73535 7.22536 2.55562 6.87962C2.24504 6.29401 2.08192 5.6415 2.08037 4.97863C2.07955 4.45571 2.18437 3.93801 2.38853 3.45659C2.5927 2.97517 2.892 2.53995 3.26849 2.17705C3.62874 1.8242 4.05816 1.54977 4.5297 1.37105C5.00123 1.19233 5.50467 1.1132 6.00829 1.13863C6.78474 1.1786 7.52926 1.4603 8.1377 1.94432C8.74613 2.42834 9.18803 3.09046 9.40156 3.83804C9.69321 4.86192 9.57652 5.95901 9.07602 6.89863C8.89641 7.24372 8.82016 7.63329 8.85641 8.02062C8.89266 8.40796 9.03986 8.77662 9.28037 9.08239C9.41309 9.24777 9.53607 9.42074 9.64869 9.60041C9.07297 10.3917 8.76268 11.345 8.76235 12.3236C8.76374 13.1318 8.968 13.9268 9.35641 14.6357C9.04453 15.1026 8.63385 15.4954 8.15343 15.7861C7.67301 16.0768 7.13457 16.2584 6.57621 16.318V16.318ZM14.0804 16.2016L13.8689 16.2135V14.8281L13.8974 14.802L15.7984 12.6634C15.8614 12.5928 15.8938 12.5001 15.8885 12.4056C15.8831 12.3111 15.8405 12.2226 15.7699 12.1596C15.6993 12.0966 15.6066 12.0642 15.5121 12.0695C15.4176 12.0749 15.3291 12.1176 15.2661 12.1881L13.8713 13.7612V10.7624C13.8713 10.6679 13.8337 10.5772 13.7669 10.5104C13.7 10.4435 13.6094 10.406 13.5148 10.406C13.4203 10.406 13.3296 10.4435 13.2628 10.5104C13.1959 10.5772 13.1584 10.6679 13.1584 10.7624V16.2277C12.9992 16.2277 12.8495 16.2277 12.7426 16.2111C10.9105 16.0424 9.47522 14.3363 9.47522 12.326C9.47522 11.8111 9.57664 11.3012 9.77368 10.8255C9.97072 10.3498 10.2595 9.91762 10.6236 9.55354C10.9877 9.18946 11.4199 8.90066 11.8956 8.70362C12.3713 8.50658 12.8811 8.40516 13.396 8.40516C13.9109 8.40516 14.4207 8.50658 14.8964 8.70362C15.3721 8.90066 15.8044 9.18946 16.1684 9.55354C16.5325 9.91762 16.8213 10.3498 17.0184 10.8255C17.2154 11.3012 17.3168 11.8111 17.3168 12.326C17.3168 14.3434 15.8958 16.0471 14.0827 16.204L14.0804 16.2016Z" fill="#0D1F2F"/>
</svg>
