<svg width="30" height="40" viewBox="0 0 30 40" fill="none" xmlns="http://www.w3.org/2000/svg">
<path fill-rule="evenodd" clip-rule="evenodd" d="M18.3758 9.59689C17.3216 6.24551 12.6785 6.24551 11.6244 9.59689C11.4741 10.0747 11.06 10.3605 10.6335 10.3605C7.11837 10.3605 5.84658 14.8834 8.53379 16.9002C8.90409 17.1781 9.07786 17.6928 8.92566 18.1767C8.40919 19.8187 9.07161 21.3547 10.2017 22.2028C11.3376 23.0553 13.0062 23.2496 14.4011 22.2028C14.7611 21.9326 15.2391 21.9326 15.5991 22.2028C16.9939 23.2496 18.6626 23.0553 19.7985 22.2028C20.9285 21.3547 21.591 19.8187 21.0745 18.1767C20.9223 17.6928 21.0961 17.1781 21.4664 16.9002C24.1536 14.8834 22.8818 10.3605 19.3667 10.3605C18.9402 10.3605 18.5261 10.0747 18.3758 9.59689ZM10.6335 12.8605C12.1961 12.8605 13.5448 11.8233 14.0092 10.347C14.3295 9.3288 15.6707 9.3288 15.991 10.347C16.4553 11.8233 17.8041 12.8605 19.3667 12.8605C19.8501 12.8605 20.2109 13.1579 20.3576 13.6242C20.5052 14.0934 20.3846 14.5863 19.9657 14.9007C18.7268 15.8305 18.2272 17.4565 18.6897 18.9268C18.8604 19.4696 18.6561 19.9344 18.2978 20.2033C17.9454 20.4678 17.5041 20.5067 17.0998 20.2033C15.8506 19.2658 14.1496 19.2658 12.9004 20.2033C12.4961 20.5067 12.0548 20.4678 11.7023 20.2033C11.3441 19.9344 11.1397 19.4696 11.3105 18.9268C11.7729 17.4565 11.2734 15.8305 10.0344 14.9007C9.61555 14.5863 9.495 14.0934 9.64258 13.6242C9.78926 13.1579 10.15 12.8605 10.6335 12.8605Z" fill="#F8F3FF"/>
<path fill-rule="evenodd" clip-rule="evenodd" d="M15.0001 0.416687C6.94593 0.416687 0.416748 6.94587 0.416748 15C0.416748 18.5245 1.66853 21.7594 3.75015 24.2803L3.75008 34.0649C3.74999 35.2824 3.74991 36.337 3.86766 37.1279C3.98643 37.9257 4.29077 38.9271 5.32137 39.388C6.33625 39.8419 7.28909 39.4252 7.9785 39.0003C8.66821 38.5753 9.48844 37.8916 10.4421 37.0966L12.0816 35.73C12.9934 34.97 13.5902 34.4756 14.0853 34.1576C14.5504 33.8589 14.8001 33.8011 15.0001 33.8011C15.2001 33.8011 15.4498 33.8589 15.9149 34.1576C16.41 34.4756 17.0068 34.97 17.9186 35.73L19.5581 37.0966C20.5117 37.8915 21.3319 38.5753 22.0217 39.0003C22.7111 39.4252 23.6639 39.8419 24.6788 39.388C25.7094 38.9271 26.0137 37.9257 26.1325 37.1279C26.2502 36.337 26.2502 35.2824 26.2501 34.0648L26.25 24.2803C28.3316 21.7594 29.5834 18.5245 29.5834 15C29.5834 6.94587 23.0542 0.416687 15.0001 0.416687ZM2.91675 15C2.91675 8.32658 8.32664 2.91669 15.0001 2.91669C21.6735 2.91669 27.0834 8.32658 27.0834 15C27.0834 18.0653 25.9436 20.8614 24.0629 22.9923C21.847 25.5029 18.6089 27.0834 15.0001 27.0834C11.3916 27.0834 8.15378 25.5032 5.93786 22.993C4.05678 20.862 2.91675 18.0657 2.91675 15ZM6.34041 36.7598C6.25347 36.1759 6.25008 35.3116 6.25008 33.9645V26.6676C8.68693 28.4977 11.7172 29.5834 15.0001 29.5834C18.283 29.5834 21.3132 28.4977 23.7501 26.6676V33.9645C23.7501 35.3116 23.7467 36.1759 23.6598 36.7598C23.6428 36.8735 23.6251 36.9596 23.6089 37.0241C23.5412 36.9924 23.4508 36.9445 23.3332 36.872C22.8153 36.5528 22.1337 35.9889 21.0839 35.1138L19.4613 33.7613C18.6235 33.063 17.9075 32.4661 17.2659 32.054C16.5794 31.6132 15.857 31.3011 15.0001 31.3011C14.1432 31.3011 13.4207 31.6132 12.7343 32.054C12.0926 32.4661 11.3767 33.063 10.5389 33.7613L8.9163 35.1138C7.86641 35.9889 7.18489 36.5528 6.66692 36.872C6.54937 36.9445 6.45893 36.9924 6.39131 37.0241C6.37505 36.9596 6.35733 36.8735 6.34041 36.7598ZM23.547 37.1955C23.5467 37.1947 23.5498 37.1885 23.5572 37.1792C23.551 37.1916 23.5473 37.1963 23.547 37.1955ZM23.761 37.0812C23.7713 37.0813 23.7771 37.0826 23.7774 37.0832C23.7778 37.0838 23.7726 37.0837 23.761 37.0812ZM6.22273 37.0832C6.22304 37.0826 6.22884 37.0813 6.23916 37.0812C6.22757 37.0837 6.22241 37.0838 6.22273 37.0832ZM6.45315 37.1955C6.45346 37.1947 6.45037 37.1885 6.44296 37.1792C6.44373 37.1807 6.44446 37.1821 6.44515 37.1835C6.45001 37.1927 6.45288 37.1962 6.45315 37.1955Z" fill="#F8F3FF"/>
</svg>
