<svg width="36" height="30" viewBox="0 0 36 30" fill="none" xmlns="http://www.w3.org/2000/svg">
<path d="M7.99992 22.0834C7.30956 22.0834 6.74992 22.643 6.74992 23.3334C6.74992 24.0237 7.30956 24.5834 7.99992 24.5834H11.3333C12.0236 24.5834 12.5833 24.0237 12.5833 23.3334C12.5833 22.643 12.0236 22.0834 11.3333 22.0834H7.99992Z" fill="#F8F3FF"/>
<path d="M16.3333 22.0834C15.6429 22.0834 15.0833 22.643 15.0833 23.3334C15.0833 24.0237 15.6429 24.5834 16.3333 24.5834H22.9999C23.6903 24.5834 24.2499 24.0237 24.2499 23.3334C24.2499 22.643 23.6903 22.0834 22.9999 22.0834H16.3333Z" fill="#F8F3FF"/>
<path fill-rule="evenodd" clip-rule="evenodd" d="M26.9084 0.534374C25.4678 0.416673 23.6754 0.416679 21.3892 0.416687H14.6107C12.3245 0.416679 10.5321 0.416673 9.09148 0.534374C7.62458 0.654224 6.41273 0.902318 5.31584 1.46121C3.51262 2.37999 2.04656 3.84606 1.12777 5.64928C0.323151 7.22844 0.150914 9.08232 0.101894 11.6428C0.0832521 12.6164 0.0832521 13.7254 0.0832521 14.9904V15.056C0.0832444 17.3422 0.0832384 19.1345 0.200939 20.5751C0.320789 22.042 0.568883 23.2539 1.12777 24.3508C2.04656 26.154 3.51262 27.62 5.31584 28.5388C6.41273 29.0977 7.62458 29.3458 9.09148 29.4657C10.532 29.5834 12.3244 29.5834 14.6105 29.5834H21.3892C23.6754 29.5834 25.4678 29.5834 26.9084 29.4657C28.3753 29.3458 29.5871 29.0977 30.684 28.5388C32.4872 27.62 33.9533 26.154 34.8721 24.3508C35.431 23.2539 35.679 22.042 35.7989 20.5751C35.9166 19.1346 35.9166 17.3422 35.9166 15.0561V14.9904C35.9166 13.7254 35.9166 12.6164 35.8979 11.6428C35.8489 9.08232 35.6767 7.22844 34.8721 5.64928C33.9533 3.84606 32.4872 2.37999 30.684 1.46121C29.5871 0.902318 28.3753 0.654224 26.9084 0.534374ZM6.45082 3.68872C7.13653 3.33934 7.98276 3.13329 9.29506 3.02607C10.6219 2.91766 12.3124 2.91669 14.6666 2.91669H21.3333C23.6874 2.91669 25.3779 2.91766 26.7048 3.02607C28.0171 3.13329 28.8633 3.33934 29.549 3.68872C30.8818 4.36783 31.9654 5.45144 32.6445 6.78425C33.068 7.61539 33.2707 8.65363 33.3571 10.4167H2.6427C2.72912 8.65363 2.9318 7.61539 3.35529 6.78425C4.03439 5.45144 5.118 4.36783 6.45082 3.68872ZM2.58325 15C2.58325 14.2421 2.58327 13.5512 2.58708 12.9167H33.4128C33.4166 13.5512 33.4166 14.2421 33.4166 15C33.4166 17.3542 33.4156 19.0447 33.3072 20.3715C33.2 21.6838 32.9939 22.5301 32.6445 23.2158C31.9654 24.5486 30.8818 25.6322 29.549 26.3113C28.8633 26.6607 28.0171 26.8667 26.7048 26.974C25.3779 27.0824 23.6874 27.0834 21.3333 27.0834H14.6666C12.3124 27.0834 10.6219 27.0824 9.29506 26.974C7.98276 26.8667 7.13653 26.6607 6.45082 26.3113C5.118 25.6322 4.03439 24.5486 3.35529 23.2158C3.0059 22.5301 2.79985 21.6838 2.69264 20.3715C2.58422 19.0447 2.58325 17.3542 2.58325 15Z" fill="#F8F3FF"/>
</svg>
