<svg width="12" height="9" viewBox="0 0 12 9" fill="none" xmlns="http://www.w3.org/2000/svg">
<path d="M4.375 0.5C4.375 0.292893 4.20711 0.125 4 0.125C3.79289 0.125 3.625 0.292893 3.625 0.5V1.03333C3.625 1.24044 3.79289 1.40833 4 1.40833C4.20711 1.40833 4.375 1.24044 4.375 1.03333V0.5Z" fill="#EAFBFC"/>
<path d="M4.375 2.63333C4.375 2.42623 4.20711 2.25833 4 2.25833C3.79289 2.25833 3.625 2.42623 3.625 2.63333V3.7C3.625 3.90711 3.79289 4.075 4 4.075C4.20711 4.075 4.375 3.90711 4.375 3.7V2.63333Z" fill="#EAFBFC"/>
<path d="M4.375 5.3C4.375 5.09289 4.20711 4.925 4 4.925C3.79289 4.925 3.625 5.09289 3.625 5.3V6.36667C3.625 6.57377 3.79289 6.74167 4 6.74167C4.20711 6.74167 4.375 6.57377 4.375 6.36667V5.3Z" fill="#EAFBFC"/>
<path d="M4.375 7.96667C4.375 7.75956 4.20711 7.59167 4 7.59167C3.79289 7.59167 3.625 7.75956 3.625 7.96667V8.5C3.625 8.70711 3.79289 8.875 4 8.875C4.20711 8.875 4.375 8.70711 4.375 8.5V7.96667Z" fill="#EAFBFC"/>
<path fill-rule="evenodd" clip-rule="evenodd" d="M7.84896 3.25617C7.58426 2.41461 6.41574 2.41461 6.15104 3.25617C6.129 3.32623 6.07087 3.36237 6.01751 3.36237C5.12977 3.36237 4.81758 4.49876 5.48881 5.00252C5.53955 5.0406 5.56644 5.11474 5.54383 5.18662C5.41465 5.59728 5.58088 5.98305 5.86409 6.19561C6.14905 6.40947 6.57051 6.45902 6.92149 6.19561C6.96915 6.15983 7.03084 6.15983 7.07851 6.19561C7.42949 6.45902 7.85095 6.40947 8.13591 6.19561C8.41912 5.98305 8.58535 5.59728 8.45617 5.18662C8.43356 5.11474 8.46045 5.0406 8.51119 5.00252C9.18242 4.49876 8.87023 3.36237 7.98249 3.36237C7.92913 3.36237 7.871 3.32623 7.84896 3.25617ZM6.86648 3.4812C6.91102 3.3396 7.08898 3.3396 7.13352 3.4812C7.24978 3.85082 7.5883 4.11237 7.98249 4.11237C8.0209 4.11237 8.04551 4.12377 8.06385 4.13842C8.08477 4.15514 8.10464 4.18243 8.11601 4.21857C8.13896 4.29155 8.11919 4.35899 8.06099 4.40267C7.74967 4.63632 7.62504 5.04386 7.74073 5.41165C7.76618 5.49257 7.73739 5.55697 7.68572 5.59575C7.65927 5.6156 7.63167 5.62423 7.60868 5.62495C7.58883 5.62557 7.56227 5.62094 7.5287 5.59575C7.2143 5.35979 6.78571 5.35979 6.4713 5.59575C6.43773 5.62094 6.41117 5.62557 6.39132 5.62495C6.36832 5.62423 6.34073 5.6156 6.31428 5.59575C6.26261 5.55697 6.23382 5.49257 6.25927 5.41166C6.37496 5.04386 6.25033 4.63632 5.93901 4.40267C5.88081 4.35899 5.86104 4.29155 5.88399 4.21857C5.89536 4.18243 5.91523 4.15514 5.93615 4.13842C5.95449 4.12377 5.9791 4.11237 6.01751 4.11237C6.4117 4.11237 6.75022 3.85082 6.86648 3.4812Z" fill="#EAFBFC"/>
<path fill-rule="evenodd" clip-rule="evenodd" d="M3.22222 0.125C1.78782 0.125 0.625 1.28782 0.625 2.72222C0.625 3.13809 0.86349 3.5171 1.2384 3.69706L1.48209 3.81403C2.0576 4.09028 2.0576 4.90972 1.48209 5.18597L1.2384 5.30294C0.863491 5.4829 0.625 5.86191 0.625 6.27778C0.625 7.71218 1.78782 8.875 3.22222 8.875H8.77778C10.2122 8.875 11.375 7.71218 11.375 6.27778C11.375 5.86191 11.1365 5.4829 10.7616 5.30294L10.5179 5.18597C9.9424 4.90972 9.9424 4.09028 10.5179 3.81403L10.7616 3.69706C11.1365 3.5171 11.375 3.13809 11.375 2.72222C11.375 1.28782 10.2122 0.125 8.77778 0.125H3.22222ZM1.375 2.72222C1.375 1.70203 2.20203 0.875 3.22222 0.875H8.77778C9.79797 0.875 10.625 1.70203 10.625 2.72222C10.625 2.84965 10.5519 2.96578 10.437 3.02092L10.1934 3.13789C9.05058 3.68642 9.05058 5.31358 10.1934 5.86211L10.437 5.97908C10.5519 6.03422 10.625 6.15035 10.625 6.27778C10.625 7.29797 9.79797 8.125 8.77778 8.125H3.22222C2.20203 8.125 1.375 7.29797 1.375 6.27778C1.375 6.15035 1.44808 6.03422 1.56295 5.97908L1.80664 5.86211C2.94942 5.31358 2.94942 3.68642 1.80663 3.13789L1.56295 3.02092C1.44808 2.96578 1.375 2.84965 1.375 2.72222Z" fill="#EAFBFC"/>
</svg>
