<svg width="23" height="21" viewBox="0 0 23 21" fill="none" xmlns="http://www.w3.org/2000/svg">
<path d="M7.00011 3.76768C6.96108 3.72897 6.96108 3.72897 6.92206 3.69026C6.72694 3.49671 6.64889 3.41929 6.64889 3.26445C6.64889 3.07091 6.72694 3.0322 6.92206 2.83865C7.00011 2.76123 7.11718 2.6451 7.19523 2.56768C7.3123 2.41284 7.3123 2.21929 7.15621 2.10316C7.00011 1.98704 6.80499 1.98703 6.68791 2.14187C6.60986 2.21929 6.53182 2.29671 6.45377 2.37413C6.21962 2.60639 5.98547 2.83865 5.98547 3.30316C5.98547 3.76768 6.21962 3.99994 6.45377 4.2322C6.49279 4.27091 6.49279 4.27091 6.53181 4.30962C6.76596 4.50316 6.92206 4.658 6.92206 5.00639C6.92206 5.39349 6.72694 5.62574 6.49279 5.858C6.45377 5.89671 6.45377 5.89671 6.41474 5.93542C6.29767 6.09026 6.29767 6.28381 6.45377 6.39994C6.53182 6.43865 6.60986 6.47736 6.68791 6.47736C6.76596 6.47736 6.88303 6.43865 6.96108 6.36123C7.00011 6.32252 7.00011 6.32252 7.03913 6.28381C7.3123 6.01284 7.66352 5.62574 7.66352 4.96768C7.6245 4.30962 7.27328 3.99994 7.00011 3.76768Z" fill="#0D1F2F"/>
<path d="M11.761 2.25804C11.7219 2.21933 11.7219 2.21933 11.6829 2.18062C11.4878 1.98707 11.4098 1.90965 11.4098 1.75481C11.4098 1.56126 11.4878 1.52255 11.6829 1.329C11.761 1.25159 11.878 1.13546 11.9561 1.05804C12.0732 0.903198 12.0732 0.709649 11.9171 0.59352C11.761 0.477391 11.5659 0.477392 11.4488 0.63223C11.3707 0.70965 11.2927 0.787069 11.2146 0.864488C10.9805 1.09675 10.7463 1.329 10.7463 1.79352C10.7463 2.25804 10.9805 2.49029 11.2146 2.72255C11.2537 2.76126 11.2537 2.76126 11.2927 2.79997C11.5268 2.99352 11.6829 3.14836 11.6829 3.49675C11.6829 3.88384 11.4878 4.1161 11.2537 4.34836C11.2146 4.38707 11.2146 4.38707 11.1756 4.42578C11.0585 4.58062 11.0585 4.77416 11.2146 4.89029C11.2927 4.929 11.3707 4.96771 11.4488 4.96771C11.5268 4.96771 11.6439 4.929 11.7219 4.85158C11.761 4.81288 11.761 4.81287 11.8 4.77417C12.0732 4.5032 12.4244 4.1161 12.4244 3.45804C12.3854 2.79997 12.0341 2.49029 11.761 2.25804Z" fill="#0D1F2F"/>
<path d="M16.561 3.76768C16.522 3.72897 16.522 3.72897 16.483 3.69026C16.2878 3.49671 16.2098 3.41929 16.2098 3.26445C16.2098 3.07091 16.2878 3.0322 16.483 2.83865C16.561 2.76123 16.6781 2.6451 16.7561 2.56768C16.8732 2.41284 16.8732 2.21929 16.7171 2.10316C16.561 1.98704 16.3659 1.98703 16.2488 2.14187C16.1708 2.21929 16.0927 2.29671 16.0147 2.37413C15.7805 2.60639 15.5464 2.83865 15.5464 3.30316C15.5464 3.76768 15.7805 3.99994 16.0147 4.2322C16.0537 4.27091 16.0537 4.27091 16.0927 4.30962C16.3269 4.50316 16.483 4.658 16.483 5.00639C16.483 5.39349 16.2878 5.62574 16.0537 5.858C16.0147 5.89671 16.0147 5.89671 15.9757 5.93542C15.8586 6.09026 15.8586 6.28381 16.0147 6.39994C16.0927 6.43865 16.1708 6.47736 16.2488 6.47736C16.3269 6.47736 16.4439 6.43865 16.522 6.36123C16.561 6.32252 16.561 6.32252 16.6 6.28381C16.8732 6.01284 17.2244 5.62574 17.2244 4.96768C17.1464 4.30962 16.7952 3.99994 16.561 3.76768Z" fill="#0D1F2F"/>
<path d="M22.7269 17.858H0.40493C0.209808 17.858 0.0537109 18.0129 0.0537109 18.2064V19.0193C0.0537109 19.9096 0.795174 20.6451 1.69274 20.6451H21.4391C22.3366 20.6451 23.0781 19.9096 23.0781 19.0193V18.2064C23.0781 18.0129 22.922 17.858 22.7269 17.858ZM22.3757 19.0193C22.3757 19.5613 21.9464 19.9871 21.4001 19.9871H1.69274C1.14639 19.9871 0.717126 19.5613 0.717126 19.0193V18.5548H22.3757V19.0193Z" fill="#0D1F2F"/>
<path d="M17.7708 10.5806C16.405 9.26445 14.6489 8.45154 12.8147 8.18057L13.4781 7.52251C13.6733 7.32896 13.7513 7.01928 13.6342 6.74832C13.5172 6.47735 13.283 6.32251 12.9708 6.32251H10.1611C9.88789 6.32251 9.61472 6.47735 9.49765 6.74832C9.38058 7.01928 9.45862 7.29025 9.65375 7.52251L10.3172 8.18057C8.44399 8.45154 6.72692 9.26445 5.32204 10.5806C3.64399 12.1677 2.66838 14.3354 2.59033 16.6193C2.59033 16.8128 2.74643 16.9677 2.90253 16.9677C3.09765 16.9677 3.25375 16.8128 3.25375 16.658C3.3318 14.529 4.22936 12.5548 5.79033 11.0838C7.23423 9.69025 9.10741 8.91606 11.0586 8.79993C11.0976 8.79993 11.1367 8.79993 11.1757 8.79993C11.2147 8.79993 11.2537 8.79993 11.2928 8.79993C11.3318 8.79993 11.3318 8.79993 11.3708 8.79993C11.4098 8.79993 11.4879 8.79993 11.5269 8.79993C11.5659 8.79993 11.644 8.79993 11.683 8.79993C11.722 8.79993 11.722 8.79993 11.7611 8.79993C11.8001 8.79993 11.8391 8.79993 11.8781 8.79993C11.9172 8.79993 11.9562 8.79993 11.9952 8.79993C13.9855 8.91606 15.8196 9.69025 17.2635 11.0838C18.8245 12.5548 19.722 14.529 19.8001 16.658C19.8001 16.8515 19.9562 17.0064 20.1513 16.9677C20.3464 16.9677 20.5025 16.8128 20.4635 16.6193C20.4245 14.2967 19.4489 12.1677 17.7708 10.5806ZM11.9172 8.10316H11.8781C11.8391 8.10316 11.8001 8.10316 11.7611 8.10316C11.683 8.10316 11.644 8.10316 11.5659 8.10316C11.4879 8.10316 11.4489 8.10316 11.3708 8.10316C11.3318 8.10316 11.2928 8.10316 11.2537 8.10316H11.2147L10.1611 7.05799H12.9708L11.9172 8.10316Z" fill="#0D1F2F"/>
</svg>
