<svg width="24" height="21" viewBox="0 0 24 21" fill="none" xmlns="http://www.w3.org/2000/svg">
<path d="M23 11H22.039C22.8541 9.64513 23.1597 8.04413 22.9011 6.48428C22.6425 4.92438 21.8365 3.50773 20.6278 2.48838C19.419 1.46904 17.8866 0.91374 16.3055 0.922105C14.7243 0.930475 13.1979 1.50196 12 2.53403C10.8032 1.4969 9.2753 0.92118 7.69165 0.91055C6.10795 0.89992 4.57255 1.45508 3.36187 2.47606C2.1512 3.49703 1.34484 4.91673 1.08801 6.47948C0.831185 8.04218 1.14076 9.64528 1.961 11H1C0.86739 11 0.740215 11.0527 0.646445 11.1465C0.55268 11.2402 0.5 11.3674 0.5 11.5C0.5 11.6326 0.55268 11.7598 0.646445 11.8536C0.740215 11.9473 0.86739 12 1 12H2.704C2.785 12.09 2.8615 12.183 2.948 12.269L9.889 19.21C10.1662 19.4873 10.4953 19.7072 10.8575 19.8573C11.2197 20.0074 11.608 20.0846 12 20.0846C12.392 20.0846 12.7803 20.0074 13.1425 19.8573C13.5047 19.7072 13.8338 19.4873 14.111 19.21L21.05 12.269C21.1365 12.183 21.213 12.09 21.294 12H23C23.1326 12 23.2598 11.9473 23.3535 11.8536C23.4473 11.7598 23.5 11.6326 23.5 11.5C23.5 11.3674 23.4473 11.2402 23.3535 11.1465C23.2598 11.0527 23.1326 11 23 11ZM2 7.56653C2.00076 6.44923 2.33261 5.35728 2.95364 4.42848C3.57467 3.49968 4.45703 2.77579 5.48925 2.3482C6.52145 1.92061 7.65725 1.80851 8.75315 2.02606C9.84905 2.24362 10.8559 2.78107 11.6465 3.57053C11.7402 3.66428 11.8674 3.71693 12 3.71693C12.1326 3.71693 12.2598 3.66428 12.3535 3.57053C13.369 2.56358 14.7285 1.97916 16.1579 1.93513C17.5872 1.8911 18.9802 2.39075 20.0557 3.33328C21.1312 4.27583 21.8092 5.59118 21.9531 7.01398C22.097 8.43678 21.696 9.86123 20.831 11H16C15.9 11 15.8023 11.0299 15.7195 11.086C15.6367 11.1421 15.5726 11.2217 15.5355 11.3145L15.05 12.5255L13.226 6.84703C13.1933 6.74543 13.129 6.65693 13.0425 6.59453C12.9559 6.53208 12.8517 6.49898 12.745 6.50003C12.6383 6.50108 12.5347 6.53628 12.4494 6.60043C12.3641 6.66453 12.3016 6.75428 12.271 6.85653L10.4545 12.9115L8.97 8.82903C8.9354 8.73383 8.87265 8.65143 8.79015 8.59268C8.70765 8.53393 8.60925 8.50163 8.508 8.50003C8.40695 8.49968 8.30805 8.52938 8.2239 8.58538C8.13975 8.64138 8.0742 8.72118 8.0355 8.81453L7.1615 11H3.169C2.40949 10.0168 1.99828 8.80898 2 7.56653ZM13.404 18.503C13.0258 18.8641 12.5229 19.0655 12 19.0655C11.4771 19.0655 10.9742 18.8641 10.596 18.503L4.093 12H7.5C7.6 12.0001 7.6977 11.9701 7.7805 11.9141C7.8633 11.858 7.9274 11.7784 7.9645 11.6855L8.478 10.4L10.028 14.669C10.0629 14.7662 10.127 14.8501 10.2115 14.9094C10.296 14.9687 10.3968 15.0003 10.5 15H10.5145C10.6195 14.997 10.721 14.9609 10.8044 14.8969C10.8878 14.8329 10.9489 14.7442 10.979 14.6435L12.7665 8.68503L14.524 14.153C14.5555 14.2509 14.6164 14.3367 14.6985 14.3987C14.7805 14.4607 14.8797 14.4959 14.9825 14.4995C15.0863 14.508 15.1899 14.4817 15.2772 14.4249C15.3644 14.3681 15.4303 14.2839 15.4645 14.1855L16.3385 12H19.907L13.404 18.503Z" fill="#0D1F2F"/>
</svg>
