<svg width="151" height="151" viewBox="0 0 151 151" fill="none" xmlns="http://www.w3.org/2000/svg">
<g filter="url(#filter0_d_92_862)">
<rect x="46" y="70.237" width="60" height="60" rx="10" transform="rotate(-37.1534 46 70.237)" fill="#F6F5F7" shape-rendering="crispEdges"/>
<g clip-path="url(#clip0_92_862)">
<path d="M78.1333 70.1447C77.7997 69.7045 77.1725 69.6181 76.7323 69.9517C76.2921 70.2852 76.2057 70.9124 76.5392 71.3526L77.3982 72.4862C77.7317 72.9264 78.3589 73.0128 78.7991 72.6792C79.2393 72.3457 79.3258 71.7184 78.9922 71.2783L78.1333 70.1447Z" fill="#0082F0"/>
<path d="M81.5691 74.6789C81.2355 74.2387 80.6083 74.1523 80.1681 74.4858C79.7279 74.8194 79.6415 75.4466 79.975 75.8868L81.6929 78.1539C82.0265 78.5941 82.6537 78.6805 83.0939 78.347C83.5341 78.0134 83.6205 77.3862 83.287 76.946L81.5691 74.6789Z" fill="#0082F0"/>
<path d="M85.8638 80.3466C85.5303 79.9064 84.903 79.82 84.4628 80.1535C84.0227 80.4871 83.9362 81.1143 84.2698 81.5545L85.9877 83.8216C86.3212 84.2618 86.9485 84.3482 87.3886 84.0147C87.8288 83.6811 87.9153 83.0539 87.5817 82.6137L85.8638 80.3466Z" fill="#0082F0"/>
<path d="M90.1586 86.0143C89.825 85.5741 89.1978 85.4877 88.7576 85.8212C88.3174 86.1548 88.231 86.782 88.5645 87.2222L89.4235 88.3558C89.757 88.7959 90.3843 88.8824 90.8245 88.5488C91.2646 88.2153 91.3511 87.588 91.0175 87.1479L90.1586 86.0143Z" fill="#0082F0"/>
<path fill-rule="evenodd" clip-rule="evenodd" d="M89.9557 70.4077C88.0377 69.0454 85.5542 70.9273 86.3469 73.1423C86.4129 73.3267 86.3476 73.4971 86.2342 73.5831C84.3474 75.0128 85.514 77.9309 87.752 77.9205C87.9212 77.9197 88.0977 78.034 88.1654 78.2232C88.5523 79.3041 89.5269 79.8563 90.4711 79.8519C91.4212 79.8475 92.3968 79.274 92.7185 78.1489C92.7622 77.9961 92.8933 77.8968 93.0522 77.896C94.2225 77.8906 95.0384 77.1065 95.2996 76.193C95.5592 75.2852 95.2912 74.1975 94.3553 73.5327C94.1915 73.4164 94.1292 73.2155 94.1757 73.0529C94.791 70.9011 92.2973 68.9887 90.4105 70.4184C90.2971 70.5043 90.1154 70.5211 89.9557 70.4077ZM88.2299 72.4683C88.0966 72.0956 88.4748 71.809 88.7975 72.0383C89.6399 72.6366 90.7806 72.6473 91.6184 72.0124C91.7001 71.9506 91.7707 71.9352 91.8333 71.9368C91.9047 71.9386 91.9909 71.9646 92.0732 72.0231C92.2396 72.1413 92.3062 72.3164 92.2528 72.503C91.9674 73.501 92.3589 74.5679 93.1971 75.1633C93.3815 75.2943 93.4241 75.4775 93.3767 75.6432C93.3525 75.728 93.3077 75.7907 93.26 75.8293C93.2188 75.8626 93.1549 75.8955 93.043 75.896C91.9947 75.9009 91.0838 76.5911 90.7956 77.599C90.7648 77.7066 90.7158 77.7592 90.6726 77.7899C90.6226 77.8254 90.5501 77.8515 90.4619 77.8519C90.2896 77.8527 90.1247 77.7622 90.0484 77.5492C89.702 76.5812 88.7808 75.9157 87.7428 75.9205C87.5487 75.9214 87.3981 75.8099 87.3293 75.6179C87.2953 75.5227 87.2936 75.4327 87.3111 75.3635C87.3265 75.3028 87.3604 75.239 87.4421 75.1771C88.2799 74.5422 88.5781 73.4412 88.2299 72.4683Z" fill="#0082F0"/>
<path fill-rule="evenodd" clip-rule="evenodd" d="M75.0792 71.2043C72.0305 73.5145 71.4318 77.8586 73.742 80.9073C74.4118 81.7912 75.5291 82.2127 76.6157 81.9913L77.322 81.8475C78.9901 81.5077 80.3099 83.2494 79.5316 84.7634L79.202 85.4044C78.695 86.3907 78.7986 87.5804 79.4683 88.4643C81.7785 91.5129 86.1227 92.1116 89.1714 89.8015L100.979 80.8541C104.028 78.5439 104.626 74.1997 102.316 71.151C101.647 70.2671 100.529 69.8457 99.4426 70.067L98.7363 70.2109C97.0682 70.5506 95.7484 68.809 96.5267 67.295L96.8563 66.6539C97.3633 65.6676 97.2597 64.478 96.59 63.5941C94.2798 60.5454 89.9356 59.9467 86.8869 62.2569L75.0792 71.2043ZM75.336 79.6994C73.693 77.5311 74.1188 74.4414 76.2871 72.7983L88.0948 63.8509C90.2631 62.2079 93.3529 62.6337 94.9959 64.802C95.2011 65.0728 95.2329 65.4373 95.0775 65.7395L94.748 66.3806C93.2025 69.3869 95.8231 72.8453 99.1354 72.1706L99.8417 72.0268C100.175 71.959 100.517 72.0881 100.722 72.3589C102.365 74.5272 101.94 77.617 99.7712 79.26L87.9635 88.2074C85.7952 89.8505 82.7054 89.4247 81.0624 87.2564C80.8572 86.9855 80.8254 86.621 80.9808 86.3188L81.3103 85.6778C82.8558 82.6714 80.2352 79.2131 76.9229 79.8877L76.2166 80.0316C75.8836 80.0994 75.5413 79.9702 75.336 79.6994Z" fill="#0082F0"/>
</g>
</g>
<defs>
<filter id="filter0_d_92_862" x="-4" y="-4" width="158.058" height="158.058" filterUnits="userSpaceOnUse" color-interpolation-filters="sRGB">
<feFlood flood-opacity="0" result="BackgroundImageFix"/>
<feColorMatrix in="SourceAlpha" type="matrix" values="0 0 0 0 0 0 0 0 0 0 0 0 0 0 0 0 0 0 127 0" result="hardAlpha"/>
<feOffset dx="-13" dy="-1"/>
<feGaussianBlur stdDeviation="18.5"/>
<feComposite in2="hardAlpha" operator="out"/>
<feColorMatrix type="matrix" values="0 0 0 0 0 0 0 0 0 0 0 0 0 0 0 0 0 0 0.4 0"/>
<feBlend mode="normal" in2="BackgroundImageFix" result="effect1_dropShadow_92_862"/>
<feBlend mode="normal" in="SourceGraphic" in2="effect1_dropShadow_92_862" result="shape"/>
</filter>
<clipPath id="clip0_92_862">
<rect width="32" height="32" fill="white" transform="translate(65.6136 72.94) rotate(-37.1534)"/>
</clipPath>
</defs>
</svg>
