<svg width="135" height="136" viewBox="0 0 135 136" fill="none" xmlns="http://www.w3.org/2000/svg">
<g filter="url(#filter0_d_92_859)">
<rect x="34" y="52" width="59.2455" height="59.2455" rx="10" transform="rotate(-37.1534 34 52)" fill="#F6F5F7"/>
</g>
<g clip-path="url(#clip0_92_859)">
<path fill-rule="evenodd" clip-rule="evenodd" d="M86.0075 52.0055C85.2449 51.0816 84.609 50.3112 84.0219 49.7675C83.4022 49.1936 82.7302 48.7684 81.8753 48.6867C81.0203 48.605 80.2799 48.8952 79.5627 49.3413C79.1936 49.5709 78.7975 49.8635 78.3646 50.2052C78.6816 49.752 78.951 49.3486 79.1578 48.9823C79.4812 48.4093 79.7103 47.8289 79.7156 47.1695C79.719 46.7418 79.6476 46.3168 79.5046 45.9137C79.284 45.2922 78.8778 44.8186 78.3849 44.3828C77.9143 43.9669 77.2847 43.5185 76.5301 42.981L76.4869 42.9502C73.3713 40.7312 69.0466 41.4579 66.8276 44.5735C66.1842 45.4768 66.1159 46.669 66.6518 47.6399L67.0001 48.2709C67.8228 49.7613 66.5551 51.5412 64.8777 51.2509L63.9688 51.0935C62.9975 50.9254 62.0158 51.3292 61.444 52.1321C61.3166 52.3109 61.2128 52.5053 61.135 52.7106L60.9563 53.182C60.1324 55.3553 60.5373 57.8035 62.0169 59.5959L64.7162 62.8658L64.6621 62.8003L71.9242 71.5975C74.3593 74.5473 78.7247 74.9646 81.6745 72.5295C82.5298 71.8235 82.9043 70.6896 82.638 69.6131L82.4648 68.9134C82.0559 67.2609 83.7411 65.8698 85.2862 66.5844L85.9404 66.8869C86.947 67.3524 88.1313 67.1995 88.9865 66.4935C91.9363 64.0584 92.3536 59.693 89.9185 56.7432L86.0075 52.0055ZM73.6896 56.645C73.6812 56.6521 73.6728 56.659 73.6642 56.6658L73.5414 56.7491L73.2676 56.9931C72.8417 57.3447 72.2114 57.2845 71.8598 56.8586C71.5083 56.4327 71.5685 55.8024 71.9944 55.4508L72.3107 55.1897L74.831 51.7231L76.2033 49.7963C76.7796 48.9873 77.1654 48.4434 77.4161 47.9991C77.6581 47.5705 77.7142 47.3348 77.7157 47.1534C77.7172 46.959 77.6848 46.7658 77.6197 46.5826C77.5591 46.4117 77.429 46.2073 77.0602 45.8813C76.678 45.5434 76.1356 45.1555 75.3266 44.5793C73.1107 43.001 70.0349 43.5179 68.4566 45.7338C68.2595 46.0106 68.2385 46.3759 68.4027 46.6734L68.7511 47.3044C70.3847 50.2638 67.8674 53.798 64.5366 53.2216L63.6277 53.0642C63.4143 53.0273 63.1986 53.116 63.073 53.2924C63.045 53.3317 63.0222 53.3744 63.0051 53.4195L62.8264 53.8909C62.2572 55.3926 62.5369 57.0842 63.5593 58.3227L73.4666 70.3243C75.1985 72.4223 78.3033 72.7191 80.4013 70.9871C80.6634 70.7708 80.7781 70.4234 80.6965 70.0935L80.5234 69.3938C79.7114 66.1125 83.0576 63.3502 86.1257 64.7691L86.7799 65.0717C87.0883 65.2143 87.4512 65.1674 87.7133 64.9511C89.8113 63.2192 90.1081 60.1144 88.3762 58.0164L84.5093 53.3322C83.691 52.3409 83.1397 51.6764 82.663 51.2349C82.2075 50.8131 81.9296 50.701 81.685 50.6776C81.4403 50.6542 81.1463 50.7116 80.6191 51.0395C80.0673 51.3828 79.4001 51.9308 78.4089 52.749L73.698 56.6379C73.6952 56.6403 73.6924 56.6427 73.6896 56.645Z" fill="#0082F0"/>
<path d="M78.4089 52.749C78.8348 52.3975 78.895 51.7671 78.5434 51.3412C78.1918 50.9153 77.5615 50.855 77.1356 51.2066L75.9017 52.2252C75.4758 52.5768 75.4155 53.2071 75.7671 53.633C76.1187 54.0589 76.749 54.1192 77.1749 53.7676L78.4089 52.749Z" fill="#0082F0"/>
<path d="M73.2676 56.9931C73.6936 56.6415 72.2114 57.2845 71.8598 56.8586C71.5083 56.4327 72.6259 54.9294 72.2 55.281L69.7322 57.3181C69.3063 57.6697 69.2461 58.3 69.5977 58.7259C69.9493 59.1518 70.5796 59.2121 71.0055 58.8605L73.2676 56.9931Z" fill="#0082F0"/>
<path d="M67.3038 61.9162C67.7297 61.5646 67.79 60.9344 67.4384 60.5084C67.0868 60.0825 66.4565 60.0223 66.0306 60.3739L64.7967 61.3925C64.3708 61.744 64.3105 62.3744 64.6621 62.8003C65.0137 63.2262 65.644 63.2864 66.0699 62.9348L67.3038 61.9162Z" fill="#0082F0"/>
</g>
<defs>
<filter id="filter0_d_92_859" x="-4" y="-3.78131" width="143.001" height="143.001" filterUnits="userSpaceOnUse" color-interpolation-filters="sRGB">
<feFlood flood-opacity="0" result="BackgroundImageFix"/>
<feColorMatrix in="SourceAlpha" type="matrix" values="0 0 0 0 0 0 0 0 0 0 0 0 0 0 0 0 0 0 127 0" result="hardAlpha"/>
<feOffset dx="-8" dy="10"/>
<feGaussianBlur stdDeviation="15"/>
<feComposite in2="hardAlpha" operator="out"/>
<feColorMatrix type="matrix" values="0 0 0 0 0 0 0 0 0 0 0 0 0 0 0 0 0 0 0.4 0"/>
<feBlend mode="normal" in2="BackgroundImageFix" result="effect1_dropShadow_92_859"/>
<feBlend mode="normal" in="SourceGraphic" in2="effect1_dropShadow_92_859" result="shape"/>
</filter>
<clipPath id="clip0_92_859">
<rect width="32" height="32" fill="white" transform="translate(77.564 34.9704) rotate(50.4602)"/>
</clipPath>
</defs>
</svg>
