<svg width="132" height="132" viewBox="0 0 132 132" fill="none" xmlns="http://www.w3.org/2000/svg">
<g filter="url(#filter0_d_92_857)">
<rect x="34" y="50.423" width="56.9964" height="56.9964" rx="10" transform="rotate(-37.1534 34 50.423)" fill="#F6F5F7" shape-rendering="crispEdges"/>
<g clip-path="url(#clip0_92_857)">
<path d="M77.1455 51.9595C77.403 51.4709 77.2157 50.8661 76.7271 50.6086C76.2385 50.3511 75.6337 50.5384 75.3762 51.027L70.4028 60.4632C70.1453 60.9518 70.3326 61.5566 70.8212 61.8141C71.3098 62.0716 71.9146 61.8843 72.1721 61.3957L77.1455 51.9595Z" fill="#0082F0"/>
<path fill-rule="evenodd" clip-rule="evenodd" d="M63.3976 46.9722C59.7438 48.1039 57.6991 51.9833 58.8308 55.6372C59.1589 56.6965 60.0654 57.4738 61.1624 57.6364L61.8754 57.7421C63.5593 57.9918 64.2058 60.0791 62.9578 61.2368L62.4293 61.7271C61.6163 62.4812 61.3078 63.6349 61.6359 64.6942C62.7675 68.348 66.6469 70.3927 70.3008 69.261L84.4524 64.8781C88.1063 63.7464 90.1509 59.867 89.0193 56.2131C88.6912 55.1538 87.7846 54.3765 86.6877 54.2139L85.9746 54.1082C84.2907 53.8585 83.6442 51.7712 84.8923 50.6135L85.4207 50.1233C86.2338 49.3691 86.5423 48.2154 86.2142 47.1561C85.0825 43.5023 81.2031 41.4576 77.5492 42.5893L63.3976 46.9722ZM60.7412 55.0455C59.9364 52.4467 61.3906 49.6876 63.9893 48.8827L78.1409 44.4997C80.7397 43.6949 83.4988 45.1491 84.3037 47.7478C84.4042 48.0724 84.3097 48.4259 84.0606 48.657L83.5321 49.1472C81.0539 51.446 82.3376 55.5909 85.6814 56.0866L86.3944 56.1923C86.7305 56.2421 87.0083 56.4803 87.1088 56.8048C87.9137 59.4036 86.4594 62.1627 83.8607 62.9676L69.7091 67.3506C67.1104 68.1554 64.3512 66.7012 63.5463 64.1025C63.4458 63.7779 63.5403 63.4244 63.7895 63.1933L64.3179 62.7031C66.7962 60.4043 65.5124 56.2594 62.1687 55.7637L61.4557 55.658C61.1195 55.6082 60.8418 55.37 60.7412 55.0455Z" fill="#0082F0"/>
<path d="M67.647 53.6821C67.8649 54.3855 68.6117 54.7791 69.3151 54.5613C70.0186 54.3434 70.4122 53.5966 70.1943 52.8931C69.9765 52.1897 69.2296 51.7961 68.5262 52.014C67.8228 52.2318 67.4292 52.9787 67.647 53.6821Z" fill="#0082F0"/>
<path d="M77.6557 58.9572C77.8736 59.6606 78.6204 60.0542 79.3238 59.8363C80.0272 59.6185 80.4209 58.8716 80.203 58.1682C79.9851 57.4648 79.2383 57.0712 78.5349 57.289C77.8315 57.5069 77.4379 58.2537 77.6557 58.9572Z" fill="#0082F0"/>
</g>
</g>
<defs>
<filter id="filter0_d_92_857" x="-4" y="-4" width="139.85" height="139.85" filterUnits="userSpaceOnUse" color-interpolation-filters="sRGB">
<feFlood flood-opacity="0" result="BackgroundImageFix"/>
<feColorMatrix in="SourceAlpha" type="matrix" values="0 0 0 0 0 0 0 0 0 0 0 0 0 0 0 0 0 0 127 0" result="hardAlpha"/>
<feOffset dx="-8" dy="10"/>
<feGaussianBlur stdDeviation="15"/>
<feComposite in2="hardAlpha" operator="out"/>
<feColorMatrix type="matrix" values="0 0 0 0 0 0 0 0 0 0 0 0 0 0 0 0 0 0 0.4 0"/>
<feBlend mode="normal" in2="BackgroundImageFix" result="effect1_dropShadow_92_857"/>
<feBlend mode="normal" in="SourceGraphic" in2="effect1_dropShadow_92_857" result="shape"/>
</filter>
<clipPath id="clip0_92_857">
<rect width="32" height="32" fill="white" transform="translate(53.9077 45.375) rotate(-17.2085)"/>
</clipPath>
</defs>
</svg>
