<svg width="19" height="19" viewBox="0 0 19 19" fill="none" xmlns="http://www.w3.org/2000/svg">
<path d="M18.1291 4.99763C18.1101 4.96437 16.0974 1.79446 11.9509 3.28674C11.6348 2.01308 10.5251 0.197632 7.91127 0.197632H7.81385C7.74883 0.1999 7.68567 0.219921 7.63121 0.255525C7.57676 0.291129 7.53309 0.340958 7.50494 0.399612C7.50494 0.420998 6.74217 2.14615 8.0586 3.57189C7.52652 3.56224 6.99795 3.66003 6.50454 3.85941C5.53029 4.26575 4.79603 5.07605 4.31603 6.27367C4.29702 6.31844 4.28739 6.36663 4.2877 6.41527C4.28802 6.46391 4.29829 6.51196 4.31788 6.55648C4.33747 6.601 4.36596 6.64104 4.40161 6.67414C4.43725 6.70723 4.47929 6.73268 4.52514 6.74892C4.62019 6.78456 6.47603 7.44516 8.28434 7.11248C7.09623 8.80436 6.55207 10.6768 6.51405 13.141H6.48078C4.44944 13.1408 2.45011 13.6472 0.663751 14.6143C0.613124 14.6294 0.566506 14.6557 0.527273 14.6911C0.488039 14.7265 0.457173 14.7702 0.436908 14.819C0.416644 14.8678 0.407488 14.9206 0.410105 14.9733C0.412722 15.0261 0.427046 15.0777 0.452039 15.1242C0.477032 15.1708 0.512069 15.2112 0.554613 15.2426C0.597157 15.274 0.646142 15.2955 0.698022 15.3056C0.749902 15.3157 0.803377 15.3141 0.854576 15.301C0.905775 15.2879 0.953415 15.2635 0.994048 15.2297C3.35565 13.9518 6.09007 13.5409 8.72295 14.0683C11.3558 14.5956 13.721 16.028 15.4083 18.1168C15.4679 18.1903 15.5541 18.237 15.6482 18.2468C15.7422 18.2566 15.8363 18.2287 15.9097 18.1691C15.9831 18.1096 16.0299 18.0233 16.0397 17.9293C16.0495 17.8352 16.0215 17.7412 15.962 17.6677C14.3579 15.6763 12.167 14.2412 9.70058 13.5663C9.70058 12.8867 9.79563 10.1897 10.6154 8.04397C11.0218 9.05149 11.8938 10.2539 13.7497 10.8955C13.8289 10.9227 13.9152 10.9213 13.9934 10.8913C14.0716 10.8613 14.1367 10.8047 14.1774 10.7315C14.194 10.703 15.4582 8.35526 13.9588 6.29743C15.1469 6.53506 16.8103 6.55407 18.0602 5.45387C18.1239 5.39834 18.1658 5.32197 18.1784 5.23841C18.191 5.15484 18.1736 5.0695 18.1291 4.99763V4.99763ZM12.8016 5.17823C12.7245 5.12845 12.6313 5.11027 12.5412 5.12748C12.4511 5.14469 12.3711 5.19597 12.3179 5.27064C12.2647 5.34531 12.2422 5.43763 12.2553 5.52841C12.2684 5.61918 12.3159 5.70142 12.3881 5.75803V5.75803C14.5742 7.27407 13.9921 9.35328 13.6855 10.0994C11.8582 9.35803 11.2356 7.98932 11.0384 6.94852C11.0249 6.87578 10.9892 6.80903 10.9361 6.75753C10.883 6.70602 10.8151 6.67232 10.742 6.66109C10.6689 6.64986 10.5941 6.66166 10.528 6.69486C10.4619 6.72805 10.4077 6.78099 10.3731 6.84635C9.18494 9.09427 9.01385 12.3331 8.99246 13.3881C8.40816 13.2658 7.81569 13.1864 7.21979 13.1505C7.26731 10.4059 7.96355 8.44793 9.54613 6.63961C9.60064 6.57746 9.63185 6.4983 9.63443 6.41567C9.637 6.33304 9.61077 6.25209 9.56023 6.18667C9.50969 6.12125 9.43799 6.07543 9.35738 6.05706C9.27678 6.03868 9.1923 6.0489 9.1184 6.08595C7.73306 6.77981 5.8986 6.39486 5.12632 6.181C5.44658 5.44247 6.03019 4.84954 6.76355 4.51763C8.0586 3.97585 9.45108 4.54615 9.46296 4.5509C9.5482 4.58296 9.64248 4.58118 9.72645 4.54591C9.81042 4.51065 9.8777 4.44458 9.91449 4.36127C9.95128 4.27796 9.95479 4.18373 9.92429 4.09791C9.89379 4.0121 9.8316 3.94121 9.75048 3.89981C7.70929 2.96357 7.91128 1.45941 8.07048 0.900998C10.96 1.0008 11.3069 3.69783 11.3307 3.81664C11.3371 3.87153 11.3561 3.92418 11.3864 3.97044C11.4166 4.0167 11.4571 4.05529 11.5049 4.08318C11.5526 4.11107 11.6061 4.12748 11.6612 4.13112C11.7164 4.13476 11.7716 4.12553 11.8226 4.10417C15.0138 2.75922 16.7723 4.43922 17.3354 5.11644C15.6269 6.30456 13.0986 5.36595 12.8016 5.17823Z" fill="#0D1F2F"/>
</svg>
