<svg width="22" height="23" viewBox="0 0 22 23" fill="none" xmlns="http://www.w3.org/2000/svg">
<path d="M21.781 8.08195C21.7008 7.56956 21.47 7.09261 21.118 6.71178C20.7659 6.33095 20.3085 6.06346 19.804 5.94334V5.94334C19.4832 5.8672 19.1507 5.85428 18.825 5.90532C18.5712 5.20415 18.0781 4.61507 17.4325 4.24195C16.0923 1.56393 13.4452 -0.0899281 10.6864 0.03126C8.91873 0.117365 7.24457 0.85083 5.98293 2.09188C4.72128 3.33292 3.96036 4.99479 3.84518 6.76076C3.78151 7.67067 3.88788 8.58447 4.15884 9.45542C3.79393 9.56605 3.45849 9.75712 3.1772 10.0146C2.89591 10.272 2.67594 10.5892 2.5335 10.9429C2.19868 10.9029 1.85915 10.9445 1.54386 11.0641C1.22857 11.1836 0.946881 11.3777 0.722802 11.6297C0.447623 11.9371 0.268286 12.3183 0.206838 12.7263C0.145389 13.1344 0.204508 13.5515 0.376926 13.9263C0.549344 14.3012 0.827547 14.6175 1.17733 14.8364C1.52712 15.0553 1.93324 15.1672 2.34577 15.1584H7.43092L8.50498 16.8907L8.52399 16.9144L9.11092 21.7358C9.12143 21.8228 9.16357 21.9028 9.22931 21.9606C9.29505 22.0185 9.37979 22.0501 9.46736 22.0495H12.5446C12.6317 22.0495 12.7159 22.0176 12.7811 21.9598C12.8464 21.902 12.8882 21.8223 12.8986 21.7358L13.4642 16.9501C13.482 16.9328 13.4979 16.9137 13.5117 16.893L17.1093 11.1188H19.2171C19.5896 11.1186 19.9577 11.0377 20.2961 10.8819C20.6345 10.726 20.9351 10.4988 21.1775 10.2158C21.426 9.92469 21.6086 9.58326 21.7128 9.21494C21.8169 8.84661 21.8402 8.46012 21.781 8.08195V8.08195ZM2.34577 14.4455C2.00017 14.449 1.66506 14.3268 1.4028 14.1017C1.14054 13.8766 0.968976 13.5639 0.92003 13.2218C0.89425 13.0222 0.911674 12.8193 0.971121 12.6271C1.03057 12.4348 1.13065 12.2575 1.26458 12.1073C1.43846 11.9103 1.66521 11.7673 1.91792 11.6952C2.17064 11.6232 2.43871 11.6252 2.69033 11.701C2.73632 11.7151 2.78472 11.7197 2.83254 11.7143C2.88036 11.709 2.92658 11.694 2.96835 11.6701C3.01009 11.6462 3.04655 11.614 3.07555 11.5756C3.10454 11.5373 3.12547 11.4934 3.13706 11.4467C3.21546 11.1325 3.37574 10.8447 3.60156 10.6126C3.82738 10.3806 4.11068 10.2125 4.4226 10.1255C4.5475 10.4238 4.69197 10.7136 4.85508 10.9928L6.99369 14.4431L2.34577 14.4455ZM12.7371 17.0594L12.5113 18.9604H9.49587L9.25825 17.0594H12.7371ZM9.7834 21.3366L9.58142 19.6732H12.4329L12.2357 21.3366H9.7834ZM13.0198 16.3465H10.7553C9.89325 14.1548 9.15622 11.916 8.54775 9.64076C8.08914 8.00591 8.26736 5.46334 8.98023 3.31997C8.99505 3.27551 9.00097 3.22855 8.99765 3.1818C8.99432 3.13504 8.98182 3.0894 8.96086 3.04748C8.9399 3.00555 8.91089 2.96817 8.87548 2.93746C8.84007 2.90675 8.79895 2.88331 8.75449 2.86849C8.71002 2.85367 8.66307 2.84775 8.61631 2.85107C8.56956 2.85439 8.52391 2.86689 8.48199 2.88785C8.44007 2.90882 8.40268 2.93783 8.37197 2.97324C8.34126 3.00865 8.31782 3.04976 8.303 3.09423C7.6733 4.98334 7.2931 7.79205 7.86102 9.83324C8.4557 12.0397 9.16478 14.2137 9.98538 16.3465H9.01112L5.44676 10.6245C4.87603 9.65596 4.56376 8.55699 4.5399 7.43303C4.51604 6.30907 4.7814 5.19784 5.31051 4.20593C5.83963 3.21402 6.61475 2.37471 7.56152 1.76852C8.50829 1.16232 9.59495 0.809581 10.7173 0.744131C12.9177 0.646706 15.1085 1.88235 16.3965 3.88076C16.223 3.85094 16.0473 3.83584 15.8713 3.83562C15.0741 3.84145 14.3085 4.1479 13.7274 4.69371C13.1464 5.23953 12.7927 5.98451 12.7371 6.77977C12.4514 6.71459 12.1556 6.70812 11.8674 6.76076C11.4066 6.84812 10.9861 7.08116 10.6678 7.42555C10.3495 7.76994 10.1503 8.20745 10.0994 8.67364C10.063 8.98442 10.0927 9.29938 10.1865 9.5979C10.2803 9.89642 10.436 10.1718 10.6436 10.4059C10.8473 10.6308 11.096 10.8105 11.3735 10.9332C11.651 11.056 11.9512 11.1192 12.2547 11.1188H16.2705L13.0198 16.3465ZM20.6357 9.75007C20.4596 9.95603 20.241 10.1213 19.9948 10.2346C19.7487 10.3478 19.4809 10.4063 19.2099 10.4059H12.2618C12.0584 10.4067 11.857 10.3648 11.6708 10.283C11.4846 10.2011 11.3176 10.0811 11.1806 9.93067C11.0363 9.77135 10.9282 9.58263 10.8638 9.37752C10.7994 9.17241 10.7802 8.95578 10.8076 8.74255C10.8408 8.42841 10.9743 8.13331 11.1882 7.90093C11.4022 7.66855 11.6853 7.51123 11.9957 7.45225C12.0835 7.43641 12.1726 7.42846 12.2618 7.42849C12.4962 7.4278 12.7272 7.48494 12.9343 7.59482C12.9911 7.62464 13.055 7.63855 13.1191 7.63508C13.1832 7.63161 13.2452 7.6109 13.2985 7.57512C13.3518 7.53934 13.3944 7.48982 13.4219 7.43181C13.4494 7.37379 13.4607 7.30943 13.4547 7.24552C13.4547 7.1671 13.4428 7.08631 13.4428 7.00789C13.4349 6.41051 13.6473 5.83113 14.0394 5.38037C14.4315 4.92961 14.9759 4.63902 15.5686 4.56409C16.1613 4.48915 16.7609 4.63511 17.2528 4.97411C17.7448 5.31311 18.0946 5.8214 18.2357 6.40195C18.2474 6.44875 18.2686 6.49268 18.2978 6.53107C18.327 6.56946 18.3638 6.60151 18.4058 6.62528C18.4478 6.64906 18.4941 6.66406 18.5421 6.66937C18.5901 6.67469 18.6386 6.67021 18.6848 6.65621C18.9934 6.56287 19.3212 6.55222 19.6353 6.62532C19.9998 6.71468 20.3297 6.90995 20.5834 7.1865C20.8371 7.46306 21.0033 7.80853 21.061 8.17938C21.108 8.45637 21.0943 8.74026 21.0209 9.01144C20.9474 9.28262 20.816 9.53463 20.6357 9.75007Z" fill="#0D1F2F"/>
</svg>
