<svg width="24" height="24" viewBox="0 0 24 24" fill="none" xmlns="http://www.w3.org/2000/svg">
<path d="M17.25 15.375H15V23.25H17.25V15.375Z" fill="#FAFAFB"/>
<path d="M10.5 11.625H5.25C4.83562 11.625 4.5 11.2894 4.5 10.875V4.875C4.5 4.46062 4.83562 4.125 5.25 4.125H10.5C10.9144 4.125 11.25 4.46062 11.25 4.875V10.875C11.25 11.2894 10.9144 11.625 10.5 11.625Z" fill="#FAFAFB"/>
<path d="M11.25 10.875V4.875C11.25 4.46062 10.9144 4.125 10.5 4.125H5.25C4.83562 4.125 4.5 4.46062 4.5 4.875C4.5 8.60287 6.5985 11.625 9.1875 11.625H10.5C10.9144 11.625 11.25 11.2894 11.25 10.875Z" fill="#FAFAFB"/>
<path d="M9.75 11.625H6V13.125H9.75V11.625Z" fill="#FAFAFB"/>
<path d="M9 13.125H6.75V23.25H9V13.125Z" fill="white"/>
<path d="M9.75 0.75H6V4.125H9.75V0.75Z" fill="white"/>
<path d="M9.75004 0.75H6.00867C6.09642 2.62988 7.48392 4.125 9.18754 4.125H9.74967L9.75004 0.75Z" fill="#FAFAFB"/>
<path d="M18.75 13.875H13.5C13.0856 13.875 12.75 13.5394 12.75 13.125V7.125C12.75 6.71062 13.0856 6.375 13.5 6.375H18.75C19.1644 6.375 19.5 6.71062 19.5 7.125V13.125C19.5 13.5394 19.1644 13.875 18.75 13.875Z" fill="white"/>
<path d="M19.5 13.125V7.125C19.5 6.71062 19.1644 6.375 18.75 6.375H13.5C13.0856 6.375 12.75 6.71062 12.75 7.125C12.75 10.8529 14.8485 13.875 17.4375 13.875H18.75C19.1644 13.875 19.5 13.5394 19.5 13.125Z" fill="#FAFAFB"/>
<path d="M18 13.875H14.25V15.375H18V13.875Z" fill="#FAFAFB"/>
<path d="M18 3H14.25V6.375H18V3Z" fill="white"/>
<path d="M18 3H14.2587C14.3464 4.87988 15.7339 6.375 17.4375 6.375H17.9997L18 3Z" fill="#FAFAFB"/>
<path d="M17.625 22.875V15.75H18C18.207 15.75 18.375 15.5824 18.375 15.375V14.25H18.75C19.3703 14.25 19.875 13.7453 19.875 13.125V7.125C19.875 6.50475 19.3703 6 18.75 6H18.375V3C18.375 2.79263 18.207 2.625 18 2.625H14.25C14.043 2.625 13.875 2.79263 13.875 3V6H13.5C12.8797 6 12.375 6.50475 12.375 7.125V13.125C12.375 13.7453 12.8797 14.25 13.5 14.25H13.875V15.375C13.875 15.5824 14.043 15.75 14.25 15.75H14.625V22.875H9.375V13.5H9.75C9.957 13.5 10.125 13.3324 10.125 13.125V12H10.5C11.1203 12 11.625 11.4953 11.625 10.875V4.875C11.625 4.25475 11.1203 3.75 10.5 3.75H10.125V0.75C10.125 0.542625 9.957 0.375 9.75 0.375H6C5.793 0.375 5.625 0.542625 5.625 0.75V3.75H5.25C4.62975 3.75 4.125 4.25475 4.125 4.875V10.875C4.125 11.4953 4.62975 12 5.25 12H5.625V13.125C5.625 13.3324 5.793 13.5 6 13.5H6.375V22.875H0.375V23.625H23.625V22.875H17.625ZM14.625 3.375H17.625V6H14.625V3.375ZM13.125 13.125V7.125C13.125 6.918 13.2934 6.75 13.5 6.75H18.75C18.9566 6.75 19.125 6.918 19.125 7.125V13.125C19.125 13.332 18.9566 13.5 18.75 13.5H13.5C13.2934 13.5 13.125 13.332 13.125 13.125ZM17.625 14.25V15H14.625V14.25H17.625ZM15.375 15.75H16.875V22.875H15.375V15.75ZM6.375 1.125H9.375V3.75H6.375V1.125ZM4.875 10.875V4.875C4.875 4.668 5.04338 4.5 5.25 4.5H10.5C10.7066 4.5 10.875 4.668 10.875 4.875V10.875C10.875 11.082 10.7066 11.25 10.5 11.25H5.25C5.04338 11.25 4.875 11.082 4.875 10.875ZM9.375 12V12.75H6.375V12H9.375ZM7.125 13.5H8.625V22.875H7.125V13.5Z" fill="#0D1F2F"/>
<path d="M8.36847 7.51947L7.62072 7.27009L8.22297 5.76409L7.52659 5.48584L6.77659 7.36084C6.73834 7.45684 6.74134 7.56409 6.78447 7.65784C6.82759 7.75159 6.90822 7.82284 7.00609 7.85547L7.75384 8.10484L7.15159 9.61084L7.84797 9.88909L8.59797 8.01409C8.63622 7.91809 8.63322 7.81084 8.59009 7.71709C8.54697 7.62334 8.46672 7.55209 8.36847 7.51947Z" fill="#0D1F2F"/>
<path d="M16.6185 9.76947L15.8707 9.52009L16.473 8.01409L15.7766 7.73584L15.0266 9.61084C14.9883 9.70684 14.9913 9.81409 15.0345 9.90784C15.0776 10.0016 15.1582 10.0728 15.2561 10.1055L16.0038 10.3548L15.4016 11.8608L16.098 12.1391L16.848 10.2641C16.8862 10.1681 16.8832 10.0608 16.8401 9.96709C16.797 9.87334 16.7167 9.80209 16.6185 9.76947Z" fill="#0D1F2F"/>
</svg>
